<svg width="34" height="40" viewBox="0 0 34 40" fill="none" xmlns="http://www.w3.org/2000/svg">
<path d="M32 0H2C1.50272 0 1.02581 0.197544 0.674175 0.549175C0.322544 0.900805 0.125 1.37772 0.125 1.875V38.125C0.125 38.6223 0.322544 39.0992 0.674175 39.4508C1.02581 39.8025 1.50272 40 2 40H32C32.4973 40 32.9742 39.8025 33.3258 39.4508C33.6775 39.0992 33.875 38.6223 33.875 38.125V1.875C33.875 1.37772 33.6775 0.900805 33.3258 0.549175C32.9742 0.197544 32.4973 0 32 0ZM32.625 38.125C32.625 38.2908 32.5592 38.4497 32.4419 38.5669C32.3247 38.6842 32.1658 38.75 32 38.75H2C1.83424 38.75 1.67527 38.6842 1.55806 38.5669C1.44085 38.4497 1.375 38.2908 1.375 38.125V1.875C1.375 1.70924 1.44085 1.55027 1.55806 1.43306C1.67527 1.31585 1.83424 1.25 2 1.25H32C32.1658 1.25 32.3247 1.31585 32.4419 1.43306C32.5592 1.55027 32.625 1.70924 32.625 1.875V38.125Z" fill="#FB2558"/>
<path d="M29.5 3.125H4.5C4.33424 3.125 4.17527 3.19085 4.05806 3.30806C3.94085 3.42527 3.875 3.58424 3.875 3.75V12.5C3.875 12.6658 3.94085 12.8247 4.05806 12.9419C4.17527 13.0592 4.33424 13.125 4.5 13.125H29.5C29.6658 13.125 29.8247 13.0592 29.9419 12.9419C30.0592 12.8247 30.125 12.6658 30.125 12.5C30.125 12.3342 30.0592 12.1753 29.9419 12.0581C29.8247 11.9408 29.6658 11.875 29.5 11.875H5.125V4.375H28.875V10C28.875 10.1658 28.9408 10.3247 29.0581 10.4419C29.1753 10.5592 29.3342 10.625 29.5 10.625C29.6658 10.625 29.8247 10.5592 29.9419 10.4419C30.0592 10.3247 30.125 10.1658 30.125 10V3.75C30.125 3.58424 30.0592 3.42527 29.9419 3.30806C29.8247 3.19085 29.6658 3.125 29.5 3.125Z" fill="#FB2558"/>
<path d="M9.5 14.375H5.75C5.25272 14.375 4.77581 14.5725 4.42417 14.9242C4.07254 15.2758 3.875 15.7527 3.875 16.25V18.75C3.875 19.2473 4.07254 19.7242 4.42417 20.0758C4.77581 20.4275 5.25272 20.625 5.75 20.625H9.5C9.99728 20.625 10.4742 20.4275 10.8258 20.0758C11.1775 19.7242 11.375 19.2473 11.375 18.75V16.25C11.375 15.7527 11.1775 15.2758 10.8258 14.9242C10.4742 14.5725 9.99728 14.375 9.5 14.375ZM10.125 18.75C10.125 18.9158 10.0592 19.0747 9.94194 19.1919C9.82473 19.3092 9.66576 19.375 9.5 19.375H5.75C5.58424 19.375 5.42527 19.3092 5.30806 19.1919C5.19085 19.0747 5.125 18.9158 5.125 18.75V16.25C5.125 16.0842 5.19085 15.9253 5.30806 15.8081C5.42527 15.6908 5.58424 15.625 5.75 15.625H9.5C9.66576 15.625 9.82473 15.6908 9.94194 15.8081C10.0592 15.9253 10.125 16.0842 10.125 16.25V18.75Z" fill="#FB2558"/>
<path d="M18.875 14.375H15.125C14.6277 14.375 14.1508 14.5725 13.7992 14.9242C13.4475 15.2758 13.25 15.7527 13.25 16.25V18.75C13.25 19.2473 13.4475 19.7242 13.7992 20.0758C14.1508 20.4275 14.6277 20.625 15.125 20.625H18.875C19.3723 20.625 19.8492 20.4275 20.2008 20.0758C20.5525 19.7242 20.75 19.2473 20.75 18.75V16.25C20.75 15.7527 20.5525 15.2758 20.2008 14.9242C19.8492 14.5725 19.3723 14.375 18.875 14.375ZM19.5 18.75C19.5 18.9158 19.4342 19.0747 19.3169 19.1919C19.1997 19.3092 19.0408 19.375 18.875 19.375H15.125C14.9592 19.375 14.8003 19.3092 14.6831 19.1919C14.5658 19.0747 14.5 18.9158 14.5 18.75V16.25C14.5 16.0842 14.5658 15.9253 14.6831 15.8081C14.8003 15.6908 14.9592 15.625 15.125 15.625H18.875C19.0408 15.625 19.1997 15.6908 19.3169 15.8081C19.4342 15.9253 19.5 16.0842 19.5 16.25V18.75Z" fill="#FB2558"/>
<path d="M28.25 14.375H24.5C24.0027 14.375 23.5258 14.5725 23.1742 14.9242C22.8225 15.2758 22.625 15.7527 22.625 16.25V18.75C22.625 19.2473 22.8225 19.7242 23.1742 20.0758C23.5258 20.4275 24.0027 20.625 24.5 20.625H28.25C28.7473 20.625 29.2242 20.4275 29.5758 20.0758C29.9275 19.7242 30.125 19.2473 30.125 18.75V16.25C30.125 15.7527 29.9275 15.2758 29.5758 14.9242C29.2242 14.5725 28.7473 14.375 28.25 14.375ZM28.875 18.75C28.875 18.9158 28.8092 19.0747 28.6919 19.1919C28.5747 19.3092 28.4158 19.375 28.25 19.375H24.5C24.3342 19.375 24.1753 19.3092 24.0581 19.1919C23.9408 19.0747 23.875 18.9158 23.875 18.75V16.25C23.875 16.0842 23.9408 15.9253 24.0581 15.8081C24.1753 15.6908 24.3342 15.625 24.5 15.625H28.25C28.4158 15.625 28.5747 15.6908 28.6919 15.8081C28.8092 15.9253 28.875 16.0842 28.875 16.25V18.75Z" fill="#FB2558"/>
<path d="M9.5 22.5H5.75C5.25272 22.5 4.77581 22.6975 4.42417 23.0492C4.07254 23.4008 3.875 23.8777 3.875 24.375V26.875C3.875 27.3723 4.07254 27.8492 4.42417 28.2008C4.77581 28.5525 5.25272 28.75 5.75 28.75H9.5C9.99728 28.75 10.4742 28.5525 10.8258 28.2008C11.1775 27.8492 11.375 27.3723 11.375 26.875V24.375C11.375 23.8777 11.1775 23.4008 10.8258 23.0492C10.4742 22.6975 9.99728 22.5 9.5 22.5ZM10.125 26.875C10.125 27.0408 10.0592 27.1997 9.94194 27.3169C9.82473 27.4342 9.66576 27.5 9.5 27.5H5.75C5.58424 27.5 5.42527 27.4342 5.30806 27.3169C5.19085 27.1997 5.125 27.0408 5.125 26.875V24.375C5.125 24.2092 5.19085 24.0503 5.30806 23.9331C5.42527 23.8158 5.58424 23.75 5.75 23.75H9.5C9.66576 23.75 9.82473 23.8158 9.94194 23.9331C10.0592 24.0503 10.125 24.2092 10.125 24.375V26.875Z" fill="#FB2558"/>
<path d="M18.875 22.5H15.125C14.6277 22.5 14.1508 22.6975 13.7992 23.0492C13.4475 23.4008 13.25 23.8777 13.25 24.375V26.875C13.25 27.3723 13.4475 27.8492 13.7992 28.2008C14.1508 28.5525 14.6277 28.75 15.125 28.75H18.875C19.3723 28.75 19.8492 28.5525 20.2008 28.2008C20.5525 27.8492 20.75 27.3723 20.75 26.875V24.375C20.75 23.8777 20.5525 23.4008 20.2008 23.0492C19.8492 22.6975 19.3723 22.5 18.875 22.5ZM19.5 26.875C19.5 27.0408 19.4342 27.1997 19.3169 27.3169C19.1997 27.4342 19.0408 27.5 18.875 27.5H15.125C14.9592 27.5 14.8003 27.4342 14.6831 27.3169C14.5658 27.1997 14.5 27.0408 14.5 26.875V24.375C14.5 24.2092 14.5658 24.0503 14.6831 23.9331C14.8003 23.8158 14.9592 23.75 15.125 23.75H18.875C19.0408 23.75 19.1997 23.8158 19.3169 23.9331C19.4342 24.0503 19.5 24.2092 19.5 24.375V26.875Z" fill="#FB2558"/>
<path d="M28.25 22.5H24.5C24.0027 22.5 23.5258 22.6975 23.1742 23.0492C22.8225 23.4008 22.625 23.8777 22.625 24.375V35C22.625 35.4973 22.8225 35.9742 23.1742 36.3258C23.5258 36.6775 24.0027 36.875 24.5 36.875H28.25C28.7473 36.875 29.2242 36.6775 29.5758 36.3258C29.9275 35.9742 30.125 35.4973 30.125 35V24.375C30.125 23.8777 29.9275 23.4008 29.5758 23.0492C29.2242 22.6975 28.7473 22.5 28.25 22.5ZM28.875 35C28.875 35.1658 28.8092 35.3247 28.6919 35.4419C28.5747 35.5592 28.4158 35.625 28.25 35.625H24.5C24.3342 35.625 24.1753 35.5592 24.0581 35.4419C23.9408 35.3247 23.875 35.1658 23.875 35V24.375C23.875 24.2092 23.9408 24.0503 24.0581 23.9331C24.1753 23.8158 24.3342 23.75 24.5 23.75H28.25C28.4158 23.75 28.5747 23.8158 28.6919 23.9331C28.8092 24.0503 28.875 24.2092 28.875 24.375V35Z" fill="#FB2558"/>
<path d="M9.5 30.625H5.75C5.25272 30.625 4.77581 30.8225 4.42417 31.1742C4.07254 31.5258 3.875 32.0027 3.875 32.5V35C3.875 35.4973 4.07254 35.9742 4.42417 36.3258C4.77581 36.6775 5.25272 36.875 5.75 36.875H9.5C9.99728 36.875 10.4742 36.6775 10.8258 36.3258C11.1775 35.9742 11.375 35.4973 11.375 35V32.5C11.375 32.0027 11.1775 31.5258 10.8258 31.1742C10.4742 30.8225 9.99728 30.625 9.5 30.625ZM10.125 35C10.125 35.1658 10.0592 35.3247 9.94194 35.4419C9.82473 35.5592 9.66576 35.625 9.5 35.625H5.75C5.58424 35.625 5.42527 35.5592 5.30806 35.4419C5.19085 35.3247 5.125 35.1658 5.125 35V32.5C5.125 32.3342 5.19085 32.1753 5.30806 32.0581C5.42527 31.9408 5.58424 31.875 5.75 31.875H9.5C9.66576 31.875 9.82473 31.9408 9.94194 32.0581C10.0592 32.1753 10.125 32.3342 10.125 32.5V35Z" fill="#FB2558"/>
<path d="M18.875 30.625H15.125C14.6277 30.625 14.1508 30.8225 13.7992 31.1742C13.4475 31.5258 13.25 32.0027 13.25 32.5V35C13.25 35.4973 13.4475 35.9742 13.7992 36.3258C14.1508 36.6775 14.6277 36.875 15.125 36.875H18.875C19.3723 36.875 19.8492 36.6775 20.2008 36.3258C20.5525 35.9742 20.75 35.4973 20.75 35V32.5C20.75 32.0027 20.5525 31.5258 20.2008 31.1742C19.8492 30.8225 19.3723 30.625 18.875 30.625ZM19.5 35C19.5 35.1658 19.4342 35.3247 19.3169 35.4419C19.1997 35.5592 19.0408 35.625 18.875 35.625H15.125C14.9592 35.625 14.8003 35.5592 14.6831 35.4419C14.5658 35.3247 14.5 35.1658 14.5 35V32.5C14.5 32.3342 14.5658 32.1753 14.6831 32.0581C14.8003 31.9408 14.9592 31.875 15.125 31.875H18.875C19.0408 31.875 19.1997 31.9408 19.3169 32.0581C19.4342 32.1753 19.5 32.3342 19.5 32.5V35Z" fill="#FB2558"/>
<path d="M14.5 9.375C14.3342 9.375 14.1753 9.44085 14.0581 9.55806C13.9408 9.67527 13.875 9.83424 13.875 10C13.875 10.1658 13.9408 10.3247 14.0581 10.4419C14.1753 10.5592 14.3342 10.625 14.5 10.625H17C17.1658 10.625 17.3247 10.5592 17.4419 10.4419C17.5592 10.3247 17.625 10.1658 17.625 10C17.625 9.83424 17.5592 9.67527 17.4419 9.55806C17.3247 9.44085 17.1658 9.375 17 9.375H14.5Z" fill="#FB2558"/>
<path d="M19.5 9.375C19.3342 9.375 19.1753 9.44085 19.0581 9.55806C18.9408 9.67527 18.875 9.83424 18.875 10C18.875 10.1658 18.9408 10.3247 19.0581 10.4419C19.1753 10.5592 19.3342 10.625 19.5 10.625H22C22.1658 10.625 22.3247 10.5592 22.4419 10.4419C22.5592 10.3247 22.625 10.1658 22.625 10C22.625 9.83424 22.5592 9.67527 22.4419 9.55806C22.3247 9.44085 22.1658 9.375 22 9.375H19.5Z" fill="#FB2558"/>
<path d="M24.5 9.375C24.3342 9.375 24.1753 9.44085 24.0581 9.55806C23.9408 9.67527 23.875 9.83424 23.875 10C23.875 10.1658 23.9408 10.3247 24.0581 10.4419C24.1753 10.5592 24.3342 10.625 24.5 10.625H27C27.1658 10.625 27.3247 10.5592 27.4419 10.4419C27.5592 10.3247 27.625 10.1658 27.625 10C27.625 9.83424 27.5592 9.67527 27.4419 9.55806C27.3247 9.44085 27.1658 9.375 27 9.375H24.5Z" fill="#FB2558"/>
</svg>
