<svg width="34" height="34" viewBox="0 0 34 34" fill="none" xmlns="http://www.w3.org/2000/svg">
<path d="M15.2917 15.4376C15.2941 14.9147 15.4667 14.4069 15.7831 13.9915C16.2095 13.4407 16.6958 12.9395 17.2331 12.4971C17.7179 12.0787 18.1624 11.6155 18.5606 11.1135C18.8111 10.7609 18.9408 10.3363 18.9304 9.90346C18.9364 9.63843 18.8891 9.37491 18.7912 9.12864C18.6934 8.88238 18.5471 8.6584 18.3611 8.47015C18.1751 8.28189 17.9532 8.13323 17.7086 8.03298C17.4641 7.93272 17.2019 7.88295 16.9377 7.88668C16.4104 7.88153 15.9009 8.07723 15.5117 8.43427C15.0584 8.87256 14.7278 9.42265 14.5531 10.0295L12.3905 9.08267C12.6655 8.026 13.2731 7.08665 14.123 6.40437C14.9614 5.77174 15.9885 5.44229 17.0372 5.46959C17.8349 5.46125 18.623 5.64487 19.3354 6.00505C20.0145 6.34724 20.588 6.86836 20.9945 7.51259C21.4067 8.16857 21.6203 8.93044 21.6095 9.70584C21.6183 10.4042 21.4309 11.0909 21.0689 11.6874C20.6112 12.3892 20.0566 13.0224 19.4218 13.568C18.9372 13.9806 18.4812 14.426 18.0572 14.9011C17.8139 15.1806 17.6788 15.5384 17.6763 15.9094C17.6831 16.1368 17.7169 16.3626 17.7768 16.582H15.566C15.3936 16.2248 15.3 15.8344 15.2917 15.4376ZM16.7659 22.464C16.5134 22.4704 16.2623 22.4252 16.0279 22.3311C15.7934 22.2369 15.5806 22.0959 15.4022 21.9165C15.2208 21.7387 15.0779 21.5251 14.9827 21.2893C14.8874 21.0535 14.8417 20.8004 14.8485 20.5461C14.8425 20.2898 14.8885 20.0351 14.9837 19.7972C15.0789 19.5594 15.2213 19.3435 15.4022 19.1625C15.5789 18.98 15.7912 18.8361 16.0258 18.7396C16.2604 18.6431 16.5124 18.5963 16.7659 18.6019C17.0209 18.5964 17.2744 18.6431 17.5108 18.7392C17.7473 18.8352 17.9618 18.9785 18.1413 19.1604C18.3208 19.3423 18.4615 19.5589 18.5548 19.7972C18.6482 20.0354 18.6922 20.2902 18.6842 20.5461C18.691 20.8004 18.6454 21.0533 18.5503 21.2891C18.4552 21.5249 18.3126 21.7385 18.1315 21.9165C17.9527 22.0958 17.7395 22.2368 17.5047 22.3309C17.2699 22.4251 17.0186 22.4703 16.7659 22.464Z" fill="white"/>
<path d="M1.48123 34C1.26376 33.9998 1.04899 33.9516 0.85216 33.8589C0.596501 33.7405 0.38019 33.5509 0.229077 33.3125C0.0779634 33.0741 -0.00156134 32.7972 -3.41217e-07 32.5147V3.602C0.00106358 2.64703 0.379589 1.73143 1.05252 1.05615C1.72546 0.380883 2.63785 0.00106761 3.58952 0H30.4105C31.3622 0.00106761 32.2745 0.380883 32.9475 1.05615C33.6204 1.73143 33.9989 2.64703 34 3.602V24.1893C33.9987 25.1441 33.62 26.0594 32.9471 26.7345C32.2742 27.4095 31.362 27.7893 30.4105 27.7903H10.3405C9.73916 27.7905 9.15698 28.0025 8.69545 28.3893L2.42484 33.6531C2.1605 33.8761 1.82655 33.9988 1.48123 34ZM3.58952 2.01679C3.17072 2.01732 2.76923 2.18449 2.47309 2.48165C2.17695 2.77882 2.01034 3.18175 2.00981 3.602V31.3711L7.40615 26.8424C8.22949 26.1526 9.26787 25.7743 10.3405 25.7735H30.4105C30.8292 25.7733 31.2307 25.6063 31.5268 25.3093C31.823 25.0123 31.9897 24.6095 31.9902 24.1893V3.602C31.9897 3.18175 31.823 2.77882 31.5269 2.48165C31.2308 2.18449 30.8293 2.01732 30.4105 2.01679H3.58952Z" fill="white"/>
</svg>
