<svg width="103" height="103" viewBox="0 0 103 103" fill="none" xmlns="http://www.w3.org/2000/svg">
<path d="M55.6301 70.658H47.375V79.6878H55.6301V70.658Z" fill="#4D4C78"/>
<path d="M39.2807 22.7957H9.83776C9.27143 22.7957 8.72829 23.0206 8.32783 23.4211C7.92737 23.8215 7.7024 24.3647 7.7024 24.931V77.5464C7.70174 77.8273 7.75648 78.1055 7.8635 78.3651C7.97052 78.6248 8.1277 78.8608 8.32605 79.0596C8.52441 79.2584 8.76003 79.4162 9.01943 79.5238C9.27884 79.6314 9.55692 79.6868 9.83776 79.6868H47.375V74.5871C47.375 74.5014 47.3699 74.4159 47.3599 74.3308L41.401 24.6798C41.3395 24.1606 41.0897 23.6821 40.6989 23.3348C40.3081 22.9876 39.8035 22.7957 39.2807 22.7957Z" fill="#67BAEB"/>
<path d="M66.2667 24.4889L55.6752 74.2404C55.6434 74.3857 55.6266 74.5338 55.625 74.6825V79.6868H93.1622C93.4431 79.6868 93.7212 79.6314 93.9806 79.5238C94.24 79.4162 94.4756 79.2584 94.6739 79.0596C94.8723 78.8608 95.0295 78.6248 95.1365 78.3652C95.2435 78.1055 95.2982 77.8273 95.2976 77.5464V24.931C95.2976 24.3647 95.0726 23.8216 94.6722 23.4211C94.2717 23.0206 93.7286 22.7957 93.1622 22.7957H68.3568C67.8668 22.7945 67.3914 22.9622 67.0107 23.2707C66.63 23.5791 66.3672 24.0093 66.2667 24.4889Z" fill="#67BAEB"/>
<path d="M66.6235 22.7957L55.6251 74.4564V70.658H47.375V74.4564L41.1749 22.7957H11.3401V78.275L13.4905 77.3907C25.1431 72.5959 38.192 72.4592 49.9425 77.0088L51.5 77.6369L53.0576 77.0088C64.808 72.4592 77.857 72.5959 89.5096 77.3907L91.66 78.275V22.7957H66.6235Z" fill="#427CFC"/>
<path d="M51.5 75.9487C39.1348 70.8641 25.2627 70.8641 12.8976 75.9487V18.3843C25.2618 13.2948 39.1358 13.2948 51.5 18.3843V75.9487Z" fill="#C8C2E9"/>
<path d="M81.1137 84.2188L78.4859 82.0282L75.8632 84.2188C74.9739 84.9624 73.6173 84.3294 73.6173 83.1687V68.2915H83.3546V83.1687C83.3546 84.3294 82.003 84.9624 81.1137 84.2188Z" fill="#F4C23F"/>
<path d="M73.6173 73.7731C76.9072 73.9573 80.1697 74.4758 83.3546 75.3206V68.2915H73.6173V73.7731Z" fill="#F4A93F"/>
<path d="M51.5 75.9487C63.8652 70.8641 77.7372 70.8641 90.1024 75.9487V18.3843C77.7382 13.2948 63.8642 13.2948 51.5 18.3843V75.9487Z" fill="#C8C2E9"/>
<path d="M16.1132 21.2633V17.1885C15.0329 17.5502 13.9577 17.9472 12.8976 18.3843V75.9487C25.3426 71.2859 39.0549 71.2859 51.5 75.9487V69.8541L51.1533 69.7386C30.2167 62.9004 16.1132 43.2852 16.1132 21.2633Z" fill="#B9B1E0"/>
<path d="M54.7156 21.2633V17.1885C53.6303 17.5502 52.5585 17.9488 51.5 18.3843V75.9487C63.945 71.2859 77.6573 71.2859 90.1024 75.9487V69.8541L89.7557 69.7386C68.814 62.9004 54.7156 43.2852 54.7156 21.2633Z" fill="#B9B1E0"/>
<path d="M19.2585 30.091C19.0218 30.0919 18.7925 30.0092 18.6108 29.8576C18.4291 29.706 18.3067 29.4951 18.2653 29.2621C18.2238 29.029 18.266 28.7889 18.3843 28.5839C18.5025 28.3789 18.6894 28.2223 18.9118 28.1415C27.2934 25.0531 36.5013 25.0531 44.8829 28.1415C45.0069 28.187 45.1208 28.2566 45.218 28.3461C45.3152 28.4356 45.3938 28.5434 45.4493 28.6633C45.5048 28.7832 45.5361 28.9129 45.5416 29.0449C45.547 29.1769 45.5263 29.3087 45.4808 29.4328C45.4353 29.5568 45.3658 29.6707 45.2762 29.7679C45.1867 29.8651 45.0789 29.9436 44.959 29.9992C44.8391 30.0547 44.7094 30.086 44.5774 30.0915C44.4454 30.0969 44.3136 30.0762 44.1895 30.0307C36.2562 27.1033 27.5385 27.1033 19.6052 30.0307C19.4938 30.0701 19.3766 30.0905 19.2585 30.091Z" fill="#B9B1E0"/>
<path d="M19.2585 40.7427C19.0218 40.7436 18.7925 40.6609 18.6108 40.5093C18.4291 40.3577 18.3067 40.1467 18.2653 39.9137C18.2238 39.6807 18.266 39.4406 18.3843 39.2356C18.5025 39.0306 18.6894 38.8739 18.9118 38.7932C27.2922 35.6982 36.5025 35.6982 44.8829 38.7932C45.0123 38.8343 45.1321 38.9011 45.235 38.9898C45.3379 39.0784 45.4218 39.187 45.4815 39.309C45.5413 39.4309 45.5757 39.5638 45.5827 39.6994C45.5896 39.835 45.5691 39.9707 45.5222 40.0981C45.4752 40.2256 45.403 40.3422 45.3098 40.4409C45.2165 40.5397 45.1042 40.6185 44.9797 40.6727C44.8551 40.7268 44.7209 40.7551 44.5851 40.7559C44.4493 40.7567 44.3147 40.73 44.1895 40.6774C36.2562 37.7499 27.5385 37.7499 19.6052 40.6774C19.4948 40.7208 19.3771 40.743 19.2585 40.7427Z" fill="#B9B1E0"/>
<path d="M19.2585 51.3895C19.0242 51.3873 18.7981 51.3033 18.6192 51.152C18.4403 51.0007 18.3199 50.7917 18.2788 50.5611C18.2377 50.3304 18.2784 50.0927 18.394 49.8889C18.5096 49.6851 18.6927 49.5281 18.9118 49.4451C27.2922 46.35 36.5025 46.35 44.8829 49.4451C45.0123 49.4861 45.1321 49.553 45.235 49.6416C45.3379 49.7303 45.4218 49.8389 45.4815 49.9608C45.5412 50.0828 45.5757 50.2156 45.5826 50.3512C45.5896 50.4869 45.569 50.6225 45.5221 50.75C45.4752 50.8774 45.403 50.994 45.3097 51.0928C45.2165 51.1915 45.1042 51.2704 44.9797 51.3245C44.8551 51.3786 44.7209 51.407 44.5851 51.4078C44.4493 51.4086 44.3147 51.3819 44.1895 51.3292C36.2562 48.4018 27.5385 48.4018 19.6052 51.3292C19.4938 51.3687 19.3766 51.389 19.2585 51.3895Z" fill="#B9B1E0"/>
<path d="M19.2585 62.0412C19.0218 62.0421 18.7925 61.9594 18.6108 61.8078C18.4291 61.6562 18.3067 61.4452 18.2653 61.2122C18.2238 60.9792 18.266 60.7391 18.3843 60.5341C18.5025 60.3291 18.6894 60.1724 18.9118 60.0917C27.2934 57.0033 36.5013 57.0033 44.8829 60.0917C45.0069 60.1372 45.1208 60.2067 45.218 60.2963C45.3152 60.3858 45.3938 60.4936 45.4493 60.6135C45.5048 60.7334 45.5361 60.8631 45.5416 60.9951C45.547 61.1271 45.5263 61.2589 45.4808 61.383C45.4353 61.507 45.3658 61.6209 45.2762 61.7181C45.1867 61.8152 45.0789 61.8938 44.959 61.9494C44.8391 62.0049 44.7094 62.0362 44.5774 62.0416C44.4454 62.0471 44.3136 62.0264 44.1895 61.9809C36.2562 59.0534 27.5385 59.0534 19.6052 61.9809C19.4938 62.0203 19.3766 62.0407 19.2585 62.0412Z" fill="#B9B1E0"/>
<path d="M83.1386 30.091C83.0205 30.0905 82.9033 30.0701 82.792 30.0307C74.8586 27.1033 66.141 27.1033 58.2076 30.0307C57.9571 30.1226 57.6803 30.1113 57.4381 29.9992C57.196 29.887 57.0083 29.6833 56.9163 29.4328C56.8244 29.1823 56.8357 28.9055 56.9479 28.6633C57.06 28.4212 57.2637 28.2335 57.5142 28.1415C65.8958 25.0531 75.1037 25.0531 83.4853 28.1415C83.7078 28.2223 83.8946 28.3789 84.0129 28.5839C84.1312 28.7889 84.1733 29.029 84.1319 29.2621C84.0904 29.4951 83.9681 29.706 83.7864 29.8576C83.6047 30.0092 83.3753 30.0919 83.1386 30.091Z" fill="#B9B1E0"/>
<path d="M83.1386 40.7427C83.0199 40.743 82.9023 40.7208 82.7919 40.6774C74.8586 37.7499 66.1409 37.7499 58.2076 40.6774C58.0824 40.73 57.9478 40.7567 57.812 40.7559C57.6762 40.7551 57.542 40.7268 57.4174 40.6727C57.2929 40.6185 57.1806 40.5397 57.0873 40.4409C56.9941 40.3422 56.9218 40.2256 56.8749 40.0981C56.828 39.9707 56.8075 39.835 56.8144 39.6994C56.8214 39.5638 56.8558 39.4309 56.9156 39.309C56.9753 39.187 57.0592 39.0784 57.1621 38.9898C57.265 38.9011 57.3847 38.8343 57.5142 38.7932C65.8946 35.6982 75.1049 35.6982 83.4853 38.7932C83.7077 38.8739 83.8946 39.0306 84.0128 39.2356C84.1311 39.4406 84.1732 39.6807 84.1318 39.9137C84.0904 40.1467 83.968 40.3577 83.7863 40.5093C83.6046 40.6609 83.3752 40.7436 83.1386 40.7427Z" fill="#B9B1E0"/>
<path d="M83.1386 51.3895C83.0205 51.389 82.9033 51.3687 82.7919 51.3292C74.8586 48.4018 66.1409 48.4018 58.2076 51.3292C58.0824 51.3819 57.9478 51.4086 57.812 51.4078C57.6762 51.407 57.542 51.3786 57.4174 51.3245C57.2929 51.2704 57.1806 51.1915 57.0873 51.0928C56.9941 50.994 56.9218 50.8774 56.8749 50.75C56.828 50.6225 56.8075 50.4869 56.8144 50.3512C56.8214 50.2156 56.8558 50.0828 56.9156 49.9608C56.9753 49.8389 57.0592 49.7303 57.1621 49.6416C57.265 49.553 57.3847 49.4861 57.5142 49.4451C65.8946 46.35 75.1049 46.35 83.4853 49.4451C83.7043 49.5281 83.8875 49.6851 84.0031 49.8889C84.1187 50.0927 84.1594 50.3304 84.1183 50.5611C84.0772 50.7917 83.9568 51.0007 83.7779 51.152C83.599 51.3033 83.3729 51.3873 83.1386 51.3895Z" fill="#B9B1E0"/>
<path d="M83.1386 62.0412C83.0205 62.0407 82.9033 62.0203 82.792 61.9809C74.8586 59.0534 66.141 59.0534 58.2076 61.9809C57.9571 62.0728 57.6803 62.0615 57.4381 61.9494C57.196 61.8372 57.0083 61.6335 56.9163 61.383C56.8244 61.1325 56.8357 60.8557 56.9479 60.6135C57.06 60.3714 57.2637 60.1837 57.5142 60.0917C65.8958 57.0033 75.1037 57.0033 83.4853 60.0917C83.7078 60.1724 83.8946 60.3291 84.0129 60.5341C84.1312 60.7391 84.1733 60.9792 84.1319 61.2122C84.0904 61.4452 83.9681 61.6562 83.7864 61.8078C83.6047 61.9594 83.3753 62.0421 83.1386 62.0412Z" fill="#B9B1E0"/>
<path d="M83.6912 29.237C83.5731 29.2365 83.4559 29.2161 83.3446 29.1767C75.4112 26.2493 66.6936 26.2493 58.7602 29.1767C58.5097 29.2686 58.2329 29.2573 57.9908 29.1452C57.7486 29.033 57.5609 28.8293 57.469 28.5788C57.377 28.3283 57.3884 28.0515 57.5005 27.8093C57.6126 27.5672 57.8163 27.3795 58.0669 27.2875C66.4484 24.1991 75.6564 24.1991 84.0379 27.2875C84.2604 27.3682 84.4472 27.5249 84.5655 27.7299C84.6838 27.9349 84.7259 28.175 84.6845 28.408C84.643 28.6411 84.5207 28.852 84.339 29.0036C84.1573 29.1552 83.9279 29.2379 83.6912 29.237Z" fill="#DFDAFD"/>
<path d="M83.6913 39.8887C83.5727 39.889 83.455 39.8668 83.3446 39.8234C75.4113 36.8959 66.6936 36.8959 58.7603 39.8234C58.6351 39.876 58.5005 39.9027 58.3647 39.9019C58.2289 39.9011 58.0947 39.8728 57.9701 39.8186C57.8456 39.7645 57.7333 39.6857 57.6401 39.5869C57.5468 39.4882 57.4746 39.3716 57.4277 39.2441C57.3808 39.1166 57.3602 38.981 57.3672 38.8454C57.3742 38.7098 57.4086 38.5769 57.4683 38.455C57.5281 38.333 57.6119 38.2244 57.7148 38.1358C57.8177 38.0471 57.9375 37.9803 58.0669 37.9392C66.4473 34.8442 75.6576 34.8442 84.038 37.9392C84.2605 38.0199 84.4473 38.1766 84.5656 38.3816C84.6838 38.5866 84.726 38.8267 84.6845 39.0597C84.6431 39.2927 84.5208 39.5037 84.3391 39.6553C84.1574 39.8069 83.928 39.8896 83.6913 39.8887Z" fill="#DFDAFD"/>
<path d="M83.6913 50.5353C83.5732 50.5348 83.456 50.5144 83.3446 50.475C75.4113 47.5475 66.6936 47.5475 58.7603 50.475C58.6351 50.5276 58.5005 50.5543 58.3647 50.5535C58.2289 50.5527 58.0947 50.5244 57.9701 50.4703C57.8456 50.4161 57.7333 50.3373 57.6401 50.2385C57.5468 50.1398 57.4746 50.0232 57.4277 49.8957C57.3808 49.7683 57.3602 49.6326 57.3672 49.497C57.3742 49.3614 57.4086 49.2286 57.4683 49.1066C57.5281 48.9846 57.6119 48.876 57.7148 48.7874C57.8177 48.6987 57.9375 48.6319 58.0669 48.5908C66.4473 45.4958 75.6576 45.4958 84.038 48.5908C84.2571 48.6739 84.4402 48.8309 84.5558 49.0346C84.6714 49.2384 84.7122 49.4762 84.671 49.7068C84.6299 49.9374 84.5095 50.1465 84.3306 50.2977C84.1517 50.449 83.9256 50.533 83.6913 50.5353Z" fill="#DFDAFD"/>
<path d="M83.6912 61.1869C83.5731 61.1865 83.4559 61.1661 83.3446 61.1266C75.4112 58.1992 66.6936 58.1992 58.7602 61.1266C58.6362 61.1722 58.5044 61.1928 58.3724 61.1874C58.2403 61.182 58.1107 61.1506 57.9908 61.0951C57.8709 61.0396 57.7631 60.961 57.6735 60.8638C57.584 60.7666 57.5145 60.6528 57.469 60.5287C57.4234 60.4047 57.4028 60.2729 57.4082 60.1409C57.4136 60.0088 57.445 59.8792 57.5005 59.7593C57.556 59.6394 57.6346 59.5316 57.7318 59.442C57.829 59.3525 57.9428 59.283 58.0669 59.2375C66.4484 56.149 75.6564 56.149 84.0379 59.2375C84.2604 59.3182 84.4472 59.4749 84.5655 59.6799C84.6838 59.8848 84.7259 60.125 84.6845 60.358C84.643 60.591 84.5207 60.8019 84.339 60.9535C84.1573 61.1052 83.9279 61.1878 83.6912 61.1869Z" fill="#DFDAFD"/>
<path d="M19.8111 29.237C19.5745 29.2379 19.3451 29.1552 19.1634 29.0036C18.9817 28.852 18.8593 28.6411 18.8179 28.408C18.7765 28.175 18.8186 27.9349 18.9369 27.7299C19.0551 27.5249 19.242 27.3682 19.4644 27.2875C27.846 24.1991 37.0539 24.1991 45.4355 27.2875C45.5595 27.333 45.6734 27.4026 45.7706 27.4921C45.8678 27.5816 45.9464 27.6894 46.0019 27.8093C46.0574 27.9292 46.0888 28.0589 46.0942 28.1909C46.0996 28.3229 46.0789 28.4547 46.0334 28.5788C45.9879 28.7028 45.9184 28.8167 45.8288 28.9139C45.7393 29.011 45.6315 29.0896 45.5116 29.1452C45.3917 29.2007 45.262 29.232 45.13 29.2374C44.998 29.2429 44.8662 29.2222 44.7421 29.1767C36.8088 26.2493 28.0911 26.2493 20.1578 29.1767C20.0464 29.2161 19.9292 29.2365 19.8111 29.237Z" fill="#DFDAFD"/>
<path d="M19.8111 39.8887C19.5745 39.8896 19.3451 39.8069 19.1634 39.6553C18.9817 39.5037 18.8593 39.2927 18.8179 39.0597C18.7765 38.8267 18.8186 38.5866 18.9369 38.3816C19.0551 38.1766 19.242 38.0199 19.4644 37.9392C27.8448 34.8442 37.0551 34.8442 45.4355 37.9392C45.565 37.9803 45.6847 38.0471 45.7876 38.1358C45.8905 38.2244 45.9744 38.333 46.0341 38.455C46.0939 38.5769 46.1283 38.7098 46.1353 38.8454C46.1422 38.981 46.1217 39.1166 46.0748 39.2441C46.0279 39.3716 45.9556 39.4882 45.8624 39.5869C45.7691 39.6857 45.6568 39.7645 45.5323 39.8186C45.4077 39.8728 45.2735 39.9011 45.1377 39.9019C45.0019 39.9027 44.8673 39.876 44.7421 39.8234C36.8088 36.8959 28.0911 36.8959 20.1578 39.8234C20.0474 39.8668 19.9298 39.889 19.8111 39.8887Z" fill="#DFDAFD"/>
<path d="M19.8112 50.5353C19.577 50.533 19.3508 50.449 19.1719 50.2977C18.9931 50.1465 18.8726 49.9374 18.8315 49.7068C18.7904 49.4762 18.8312 49.2384 18.9467 49.0346C19.0623 48.8309 19.2455 48.6739 19.4645 48.5908C27.8449 45.4958 37.0552 45.4958 45.4356 48.5908C45.5651 48.6319 45.6849 48.6987 45.7877 48.7874C45.8906 48.876 45.9745 48.9846 46.0342 49.1066C46.094 49.2286 46.1284 49.3614 46.1354 49.497C46.1424 49.6326 46.1218 49.7683 46.0749 49.8957C46.028 50.0232 45.9557 50.1398 45.8625 50.2385C45.7692 50.3373 45.657 50.4161 45.5324 50.4703C45.4079 50.5244 45.2736 50.5527 45.1378 50.5535C45.002 50.5543 44.8674 50.5276 44.7422 50.475C36.8089 47.5475 28.0912 47.5475 20.1579 50.475C20.0466 50.5144 19.9294 50.5348 19.8112 50.5353Z" fill="#DFDAFD"/>
<path d="M19.8111 61.1869C19.5745 61.1878 19.3451 61.1052 19.1634 60.9535C18.9817 60.8019 18.8593 60.591 18.8179 60.358C18.7765 60.125 18.8186 59.8848 18.9369 59.6799C19.0551 59.4749 19.242 59.3182 19.4644 59.2375C27.846 56.149 37.0539 56.149 45.4355 59.2375C45.5595 59.283 45.6734 59.3525 45.7706 59.442C45.8678 59.5316 45.9464 59.6394 46.0019 59.7593C46.0574 59.8792 46.0888 60.0088 46.0942 60.1409C46.0996 60.2729 46.0789 60.4047 46.0334 60.5287C45.9879 60.6528 45.9184 60.7666 45.8288 60.8638C45.7393 60.961 45.6315 61.0396 45.5116 61.0951C45.3917 61.1506 45.262 61.182 45.13 61.1874C44.998 61.1928 44.8662 61.1722 44.7421 61.1266C36.8088 58.1992 28.0911 58.1992 20.1578 61.1266C20.0464 61.1661 19.9292 61.1865 19.8111 61.1869Z" fill="#DFDAFD"/>
<path d="M83.44 29.5885C83.3219 29.5881 83.2047 29.5677 83.0933 29.5282C75.16 26.6008 66.4423 26.6008 58.509 29.5282C58.385 29.5738 58.2532 29.5944 58.1211 29.589C57.9891 29.5836 57.8594 29.5522 57.7395 29.4967C57.6196 29.4412 57.5118 29.3626 57.4223 29.2654C57.3328 29.1683 57.2633 29.0544 57.2177 28.9303C57.1722 28.8063 57.1516 28.6745 57.157 28.5425C57.1624 28.4105 57.1937 28.2808 57.2493 28.1609C57.3048 28.041 57.3834 27.9332 57.4806 27.8436C57.5777 27.7541 57.6916 27.6846 57.8156 27.6391C66.1972 24.5506 75.4051 24.5506 83.7867 27.6391C84.0092 27.7198 84.196 27.8765 84.3143 28.0815C84.4326 28.2865 84.4747 28.5266 84.4333 28.7596C84.3918 28.9926 84.2695 29.2035 84.0878 29.3552C83.9061 29.5068 83.6767 29.5894 83.44 29.5885Z" fill="#4D4C78"/>
<path d="M83.4401 40.2402C83.3214 40.2405 83.2038 40.2184 83.0934 40.1749C75.1601 37.2475 66.4424 37.2475 58.5091 40.1749C58.3839 40.2276 58.2493 40.2543 58.1135 40.2535C57.9777 40.2527 57.8435 40.2243 57.7189 40.1702C57.5944 40.1161 57.4821 40.0372 57.3888 39.9385C57.2956 39.8397 57.2234 39.7231 57.1765 39.5957C57.1295 39.4682 57.109 39.3326 57.116 39.1969C57.1229 39.0613 57.1573 38.9285 57.2171 38.8065C57.2768 38.6846 57.3607 38.576 57.4636 38.4873C57.5665 38.3987 57.6863 38.3318 57.8157 38.2908C66.1961 35.1957 75.4064 35.1957 83.7868 38.2908C84.0092 38.3715 84.1961 38.5282 84.3144 38.7332C84.4326 38.9381 84.4748 39.1783 84.4333 39.4113C84.3919 39.6443 84.2695 39.8552 84.0878 40.0069C83.9061 40.1585 83.6768 40.2411 83.4401 40.2402Z" fill="#4D4C78"/>
<path d="M83.4401 50.8871C83.322 50.8866 83.2048 50.8662 83.0934 50.8268C75.1601 47.8993 66.4424 47.8993 58.5091 50.8268C58.3839 50.8794 58.2493 50.9062 58.1135 50.9053C57.9777 50.9045 57.8435 50.8762 57.7189 50.8221C57.5944 50.7679 57.4821 50.6891 57.3888 50.5904C57.2956 50.4916 57.2234 50.375 57.1765 50.2475C57.1295 50.1201 57.109 49.9844 57.116 49.8488C57.1229 49.7132 57.1573 49.5804 57.2171 49.4584C57.2768 49.3364 57.3607 49.2279 57.4636 49.1392C57.5665 49.0506 57.6863 48.9837 57.8157 48.9426C66.1961 45.8476 75.4064 45.8476 83.7868 48.9426C84.0058 49.0257 84.189 49.1827 84.3046 49.3864C84.4202 49.5902 84.4609 49.828 84.4198 50.0586C84.3787 50.2893 84.2583 50.4983 84.0794 50.6495C83.9005 50.8008 83.6744 50.8848 83.4401 50.8871Z" fill="#4D4C78"/>
<path d="M83.44 61.5387C83.3219 61.5383 83.2047 61.5179 83.0933 61.4784C75.16 58.551 66.4423 58.551 58.509 61.4784C58.385 61.524 58.2532 61.5446 58.1211 61.5392C57.9891 61.5338 57.8594 61.5024 57.7395 61.4469C57.6196 61.3914 57.5118 61.3128 57.4223 61.2156C57.3328 61.1184 57.2633 61.0046 57.2177 60.8805C57.1722 60.7565 57.1516 60.6247 57.157 60.4927C57.1624 60.3606 57.1937 60.231 57.2493 60.1111C57.3048 59.9912 57.3834 59.8834 57.4806 59.7938C57.5777 59.7043 57.6916 59.6348 57.8156 59.5893C66.1972 56.5008 75.4051 56.5008 83.7867 59.5893C84.0092 59.67 84.196 59.8267 84.3143 60.0317C84.4326 60.2366 84.4747 60.4768 84.4333 60.7098C84.3918 60.9428 84.2695 61.1537 84.0878 61.3054C83.9061 61.457 83.6767 61.5396 83.44 61.5387Z" fill="#4D4C78"/>
<path d="M90.0973 23.4186C90.0973 22.2864 89.1795 21.3687 88.0474 21.3687C86.9152 21.3687 85.9974 22.2864 85.9974 23.4186V46.7072C85.9974 47.8393 86.9152 48.7571 88.0474 48.7571C89.1795 48.7571 90.0973 47.8393 90.0973 46.7072V23.4186Z" fill="#DFDAFD"/>
<path d="M51.5 25.6897C51.5 24.885 50.8476 24.2327 50.0429 24.2327C49.2382 24.2327 48.5858 24.885 48.5858 25.6897V40.4981C48.5858 41.3028 49.2382 41.9552 50.0429 41.9552C50.8476 41.9552 51.5 41.3028 51.5 40.4981V25.6897Z" fill="#DFDAFD"/>
<path d="M19.5599 29.5885C19.3232 29.5894 19.0938 29.5068 18.9122 29.3552C18.7305 29.2035 18.6081 28.9926 18.5667 28.7596C18.5252 28.5266 18.5674 28.2865 18.6856 28.0815C18.8039 27.8765 18.9907 27.7198 19.2132 27.6391C27.5948 24.5506 36.8027 24.5506 45.1843 27.6391C45.3083 27.6846 45.4222 27.7541 45.5194 27.8436C45.6166 27.9332 45.6951 28.041 45.7507 28.1609C45.8062 28.2808 45.8375 28.4105 45.843 28.5425C45.8484 28.6745 45.8277 28.8063 45.7822 28.9303C45.7367 29.0544 45.6671 29.1683 45.5776 29.2654C45.4881 29.3626 45.3803 29.4412 45.2604 29.4967C45.1405 29.5522 45.0108 29.5836 44.8788 29.589C44.7468 29.5944 44.615 29.5738 44.4909 29.5282C36.5576 26.6008 27.8399 26.6008 19.9066 29.5282C19.7952 29.5677 19.678 29.5881 19.5599 29.5885Z" fill="#4D4C78"/>
<path d="M19.5599 40.2402C19.3232 40.2411 19.0938 40.1585 18.9122 40.0069C18.7305 39.8552 18.6081 39.6443 18.5667 39.4113C18.5252 39.1783 18.5674 38.9381 18.6856 38.7332C18.8039 38.5282 18.9907 38.3715 19.2132 38.2908C27.5936 35.1957 36.8039 35.1957 45.1843 38.2908C45.3137 38.3318 45.4335 38.3987 45.5364 38.4873C45.6393 38.576 45.7232 38.6846 45.7829 38.8065C45.8427 38.9285 45.8771 39.0613 45.884 39.1969C45.891 39.3326 45.8704 39.4682 45.8235 39.5957C45.7766 39.7231 45.7044 39.8397 45.6112 39.9385C45.5179 40.0372 45.4056 40.1161 45.2811 40.1702C45.1565 40.2243 45.0223 40.2527 44.8865 40.2535C44.7507 40.2543 44.6161 40.2276 44.4909 40.1749C36.5576 37.2475 27.8399 37.2475 19.9066 40.1749C19.7962 40.2184 19.6785 40.2405 19.5599 40.2402Z" fill="#4D4C78"/>
<path d="M19.56 50.8871C19.3257 50.8848 19.0996 50.8008 18.9207 50.6495C18.7418 50.4983 18.6214 50.2893 18.5803 50.0586C18.5392 49.828 18.5799 49.5902 18.6955 49.3864C18.8111 49.1827 18.9943 49.0257 19.2133 48.9426C27.5937 45.8476 36.804 45.8476 45.1844 48.9426C45.3138 48.9837 45.4336 49.0506 45.5365 49.1392C45.6394 49.2279 45.7233 49.3364 45.783 49.4584C45.8428 49.5804 45.8772 49.7132 45.8842 49.8488C45.8911 49.9844 45.8706 50.1201 45.8237 50.2475C45.7767 50.375 45.7045 50.4916 45.6113 50.5904C45.518 50.6891 45.4057 50.7679 45.2812 50.8221C45.1566 50.8762 45.0224 50.9045 44.8866 50.9053C44.7508 50.9062 44.6162 50.8794 44.491 50.8268C36.5577 47.8993 27.84 47.8993 19.9067 50.8268C19.7953 50.8662 19.6781 50.8866 19.56 50.8871Z" fill="#4D4C78"/>
<path d="M19.5599 61.5387C19.3232 61.5396 19.0938 61.457 18.9122 61.3054C18.7305 61.1537 18.6081 60.9428 18.5667 60.7098C18.5252 60.4768 18.5674 60.2366 18.6856 60.0317C18.8039 59.8267 18.9907 59.67 19.2132 59.5893C27.5948 56.5008 36.8027 56.5008 45.1843 59.5893C45.3083 59.6348 45.4222 59.7043 45.5194 59.7938C45.6166 59.8834 45.6951 59.9912 45.7507 60.1111C45.8062 60.231 45.8375 60.3606 45.843 60.4927C45.8484 60.6247 45.8277 60.7565 45.7822 60.8805C45.7367 61.0046 45.6671 61.1184 45.5776 61.2156C45.4881 61.3128 45.3803 61.3914 45.2604 61.4469C45.1405 61.5024 45.0108 61.5338 44.8788 61.5392C44.7468 61.5446 44.615 61.524 44.4909 61.4784C36.5576 58.551 27.8399 58.551 19.9066 61.4784C19.7952 61.5179 19.678 61.5383 19.5599 61.5387Z" fill="#4D4C78"/>
<path d="M83.3546 78.8679C83.3546 78.3184 82.9104 77.873 82.3623 77.873C81.8143 77.873 81.37 78.3184 81.37 78.8679V82.1729C81.37 82.7223 81.8143 83.1677 82.3623 83.1677C82.9104 83.1677 83.3546 82.7223 83.3546 82.1729V78.8679Z" fill="#FAD564"/>
<path d="M95.2976 30.1965C95.2976 29.6665 94.868 29.2368 94.338 29.2368C93.8079 29.2368 93.3783 29.6665 93.3783 30.1965V50.8749C93.3783 51.4049 93.8079 51.8345 94.338 51.8345C94.868 51.8345 95.2976 51.4049 95.2976 50.8749V30.1965Z" fill="#83D0FB"/>
</svg>
