<svg width="28" height="25" viewBox="0 0 28 25" fill="none" xmlns="http://www.w3.org/2000/svg">
<path d="M2.43757 19.6077C2.3973 19.6077 2.35742 19.6162 2.32022 19.6326C2.28302 19.6491 2.24921 19.6732 2.22074 19.7036C2.19226 19.7341 2.16967 19.7702 2.15426 19.8099C2.13885 19.8497 2.13092 19.8922 2.13092 19.9353V24.6724C2.13092 24.7593 2.16323 24.8426 2.22074 24.9041C2.27824 24.9655 2.35624 25 2.43757 25C2.5189 25 2.59689 24.9655 2.6544 24.9041C2.71191 24.8426 2.74422 24.7593 2.74422 24.6724V19.9353C2.74422 19.8484 2.71191 19.7651 2.6544 19.7036C2.59689 19.6422 2.5189 19.6077 2.43757 19.6077Z" fill="#27E4B7"/>
<path d="M27.6934 0H0.965044C0.883715 0 0.805718 0.0345091 0.748211 0.0959356C0.690703 0.157362 0.658395 0.240674 0.658395 0.327545V17.9989C0.226209 18.7921 -0.000998626 19.6938 3.29936e-06 20.6115V24.6725C3.29936e-06 24.7593 0.0323108 24.8426 0.0898185 24.9041C0.147326 24.9655 0.225323 25 0.306652 25C0.38798 25 0.465977 24.9655 0.523485 24.9041C0.580993 24.8426 0.6133 24.7593 0.6133 24.6725V20.6115C0.614255 19.4025 1.06433 18.2432 1.86472 17.3883C2.66511 16.5334 3.7504 16.0526 4.88233 16.0516H5.84857C8.34986 16.0516 9.06296 16.3169 10.4838 16.8454L12.3164 17.5256C12.3732 17.5467 12.4345 17.5496 12.4928 17.5338C12.551 17.5181 12.6037 17.4844 12.6441 17.4369L16.1646 13.3079C16.2983 13.155 16.477 13.0557 16.671 13.0263C16.8649 12.997 17.0624 13.0395 17.2306 13.1467C17.34 13.2134 17.434 13.3054 17.5057 13.4159C17.5774 13.5265 17.6249 13.6529 17.6448 13.7857C17.6647 13.9185 17.6565 14.0544 17.6207 14.1833C17.5849 14.3123 17.5225 14.431 17.4381 14.5308L13.1991 19.5795C13.0809 19.7218 12.93 19.8286 12.7613 19.8895C12.5925 19.9503 12.4118 19.963 12.2371 19.9263L9.46702 18.9783C9.42105 18.9624 9.37221 18.9583 9.32449 18.9664C9.27676 18.9746 9.23152 18.9946 9.19246 19.025C9.15339 19.0554 9.12162 19.0952 9.09974 19.1413C9.07786 19.1873 9.06649 19.2382 9.06657 19.2898V24.6725C9.06657 24.7593 9.09888 24.8426 9.15639 24.9041C9.21389 24.9655 9.29189 25 9.37322 25C9.45455 25 9.53255 24.9655 9.59005 24.9041C9.64756 24.8426 9.67987 24.7593 9.67987 24.6725V22.6314H27.6934C27.7336 22.6314 27.7735 22.6229 27.8107 22.6065C27.8479 22.59 27.8817 22.5659 27.9102 22.5355C27.9387 22.5051 27.9612 22.4689 27.9767 22.4292C27.9921 22.3895 28 22.3469 28 22.3039V0.327545C28 0.284531 27.9921 0.241939 27.9767 0.202199C27.9612 0.162459 27.9387 0.126351 27.9102 0.0959356C27.8817 0.0655202 27.8479 0.0413935 27.8107 0.0249328C27.7735 0.00847217 27.7336 0 27.6934 0ZM5.80287 15.3599C5.25584 15.3599 4.72109 15.1866 4.26625 14.862C3.81141 14.5374 3.4569 14.076 3.24756 13.5362C3.03822 12.9963 2.98345 12.4023 3.09017 11.8292C3.19689 11.2561 3.46031 10.7297 3.84712 10.3166C4.23393 9.9034 4.72676 9.62203 5.26328 9.50803C5.7998 9.39404 6.35592 9.45255 6.86132 9.67615C7.36671 9.89976 7.79867 10.2784 8.10259 10.7643C8.40651 11.2501 8.56872 11.8213 8.56872 12.4056C8.56872 12.7936 8.49718 13.1777 8.35818 13.5362C8.21918 13.8946 8.01545 14.2203 7.75862 14.4946C7.50179 14.7689 7.19688 14.9866 6.86132 15.135C6.52575 15.2835 6.16609 15.3599 5.80287 15.3599ZM27.3885 21.975H9.68348V19.7387L12.0813 20.5582C12.3653 20.6244 12.6606 20.6092 12.9373 20.5141C13.2139 20.4191 13.4621 20.2475 13.6567 20.0168L17.8956 14.9681C18.0422 14.7939 18.15 14.5865 18.2112 14.3616C18.2724 14.1366 18.2853 13.8998 18.2489 13.6688C18.2126 13.4378 18.1279 13.2185 18.0013 13.0273C17.8746 12.836 17.7093 12.6778 17.5174 12.5642C17.2292 12.3891 16.894 12.3235 16.5664 12.3781C16.2388 12.4327 15.9382 12.6043 15.7136 12.8648L12.3261 16.8345L10.6858 16.2263C9.63237 15.8345 8.92467 15.5712 7.60007 15.4588C8.22164 15.0419 8.69914 14.4201 8.96031 13.6874C9.22148 12.9547 9.25209 12.1511 9.04752 11.3982C8.84295 10.6453 8.41432 9.98411 7.82652 9.51463C7.23872 9.04515 6.52374 8.79298 5.78979 8.79628C5.05584 8.79959 4.34287 9.05818 3.75879 9.53293C3.17472 10.0077 2.75133 10.6727 2.5527 11.4275C2.35408 12.1822 2.39103 12.9855 2.65796 13.7158C2.9249 14.446 3.40729 15.0636 4.03213 15.4749C2.96838 15.6767 1.99746 16.25 1.27169 17.1049V0.655089H27.3867L27.3885 21.975Z" fill="#27E4B7"/>
<path d="M10.4711 4.08082H23.9138C23.9951 4.08082 24.0731 4.04632 24.1306 3.98489C24.1881 3.92346 24.2204 3.84015 24.2204 3.75328C24.2204 3.66641 24.1881 3.5831 24.1306 3.52167C24.0731 3.46024 23.9951 3.42574 23.9138 3.42574H10.4711C10.3898 3.42574 10.3118 3.46024 10.2543 3.52167C10.1968 3.5831 10.1645 3.66641 10.1645 3.75328C10.1645 3.84015 10.1968 3.92346 10.2543 3.98489C10.3118 4.04632 10.3898 4.08082 10.4711 4.08082Z" fill="#27E4B7"/>
<path d="M23.9138 6.69283H21.3518C21.3115 6.69283 21.2716 6.7013 21.2344 6.71776C21.1972 6.73422 21.1634 6.75835 21.1349 6.78876C21.1064 6.81918 21.0839 6.85528 21.0684 6.89502C21.053 6.93476 21.0451 6.97736 21.0451 7.02037C21.0451 7.06338 21.053 7.10598 21.0684 7.14572C21.0839 7.18546 21.1064 7.22156 21.1349 7.25198C21.1634 7.28239 21.1972 7.30652 21.2344 7.32298C21.2716 7.33944 21.3115 7.34791 21.3518 7.34791H23.9138C23.954 7.34791 23.9939 7.33944 24.0311 7.32298C24.0683 7.30652 24.1021 7.28239 24.1306 7.25198C24.1591 7.22156 24.1817 7.18546 24.1971 7.14572C24.2125 7.10598 24.2204 7.06338 24.2204 7.02037C24.2204 6.97736 24.2125 6.93476 24.1971 6.89502C24.1817 6.85528 24.1591 6.81918 24.1306 6.78876C24.1021 6.75835 24.0683 6.73422 24.0311 6.71776C23.9939 6.7013 23.954 6.69283 23.9138 6.69283Z" fill="#27E4B7"/>
<path d="M10.4711 7.34791H18.2588C18.2991 7.34791 18.3389 7.33944 18.3762 7.32298C18.4134 7.30652 18.4472 7.28239 18.4756 7.25198C18.5041 7.22156 18.5267 7.18546 18.5421 7.14572C18.5575 7.10598 18.5654 7.06338 18.5654 7.02037C18.5654 6.97736 18.5575 6.93476 18.5421 6.89502C18.5267 6.85528 18.5041 6.81918 18.4756 6.78876C18.4472 6.75835 18.4134 6.73422 18.3762 6.71776C18.3389 6.7013 18.2991 6.69283 18.2588 6.69283H10.4711C10.3898 6.69283 10.3118 6.72733 10.2543 6.78876C10.1968 6.85019 10.1645 6.9335 10.1645 7.02037C10.1645 7.10724 10.1968 7.19055 10.2543 7.25198C10.3118 7.3134 10.3898 7.34791 10.4711 7.34791Z" fill="#27E4B7"/>
<path d="M23.9137 9.95993H18.8889C18.8076 9.95993 18.7296 9.99444 18.6721 10.0559C18.6146 10.1173 18.5823 10.2006 18.5823 10.2875C18.5823 10.3743 18.6146 10.4577 18.6721 10.5191C18.7296 10.5805 18.8076 10.615 18.8889 10.615H23.9137C23.9951 10.615 24.0731 10.5805 24.1306 10.5191C24.1881 10.4577 24.2204 10.3743 24.2204 10.2875C24.2204 10.2006 24.1881 10.1173 24.1306 10.0559C24.0731 9.99444 23.9951 9.95993 23.9137 9.95993Z" fill="#27E4B7"/>
<path d="M10.4711 10.615H13.1053C13.1866 10.615 13.2646 10.5805 13.3221 10.5191C13.3796 10.4577 13.412 10.3743 13.412 10.2875C13.412 10.2006 13.3796 10.1173 13.3221 10.0559C13.2646 9.99444 13.1866 9.95993 13.1053 9.95993H10.4711C10.3898 9.95993 10.3118 9.99444 10.2543 10.0559C10.1968 10.1173 10.1645 10.2006 10.1645 10.2875C10.1645 10.3743 10.1968 10.4577 10.2543 10.5191C10.3118 10.5805 10.3898 10.615 10.4711 10.615Z" fill="#27E4B7"/>
</svg>
