<svg width="24" height="24" viewBox="0 0 24 24" fill="none" xmlns="http://www.w3.org/2000/svg">
<path d="M11.9593 18.0722C11.8607 18.0719 11.7632 18.0509 11.6733 18.0105C11.5833 17.9702 11.5028 17.9113 11.4371 17.8378L4.85959 10.5436C4.76921 10.4425 4.70997 10.3175 4.689 10.1836C4.66804 10.0496 4.68624 9.91249 4.74142 9.78866C4.7966 9.66482 4.8864 9.55958 5.00002 9.48561C5.11363 9.41163 5.24621 9.37208 5.38178 9.37172H8.01569V2.95312C8.01569 2.76664 8.08976 2.5878 8.22163 2.45594C8.35349 2.32408 8.53233 2.25 8.71881 2.25H15.2016C15.3881 2.25 15.5669 2.32408 15.6988 2.45594C15.8307 2.5878 15.9047 2.76664 15.9047 2.95312V9.36984H18.5372C18.6728 9.37021 18.8054 9.40976 18.919 9.48373C19.0326 9.5577 19.1224 9.66295 19.1776 9.78678C19.2328 9.91062 19.251 10.0478 19.23 10.1817C19.2091 10.3156 19.1498 10.4407 19.0594 10.5417L12.4815 17.8397C12.4156 17.9128 12.335 17.9713 12.2451 18.0114C12.1551 18.0514 12.0577 18.0722 11.9593 18.0722ZM6.9624 10.7761L11.9593 16.3191L16.9566 10.7761H15.2016C15.0151 10.7761 14.8363 10.702 14.7044 10.5702C14.5726 10.4383 14.4985 10.2594 14.4985 10.073V3.65625H9.42194V10.073C9.42194 10.2594 9.34786 10.4383 9.21599 10.5702C9.08413 10.702 8.90529 10.7761 8.71881 10.7761H6.9624Z" fill="white"/>
<path d="M18.3206 21.0937H5.59829C4.78683 21.0928 4.00884 20.7701 3.43501 20.1964C2.86117 19.6226 2.53835 18.8447 2.53735 18.0332V16.244C2.53735 16.0575 2.61143 15.8787 2.74329 15.7468C2.87516 15.615 3.054 15.5409 3.24048 15.5409C3.42696 15.5409 3.6058 15.615 3.73766 15.7468C3.86952 15.8787 3.9436 16.0575 3.9436 16.244V18.0332C3.94422 18.4719 4.11877 18.8923 4.42896 19.2024C4.73916 19.5125 5.15967 19.687 5.59829 19.6875H18.3206C18.7592 19.687 19.1797 19.5125 19.4898 19.2024C19.7999 18.8923 19.9744 18.4718 19.9749 18.0332V16.244C19.9749 16.0575 20.0489 15.8787 20.1808 15.7468C20.3127 15.615 20.4915 15.5409 20.678 15.5409C20.8645 15.5409 21.0433 15.615 21.1752 15.7468C21.307 15.8787 21.3811 16.0575 21.3811 16.244V18.0332C21.3801 18.8446 21.0574 19.6225 20.4836 20.1962C19.9099 20.77 19.132 21.0927 18.3206 21.0937Z" fill="white"/>
</svg>
