<svg width="120" height="132" viewBox="0 0 120 132" fill="none" xmlns="http://www.w3.org/2000/svg">
<path d="M31.2454 103.733C30.4136 103.733 29.6005 103.979 28.9088 104.442C28.2172 104.904 27.6782 105.561 27.3598 106.329C27.0415 107.098 26.9583 107.943 27.1206 108.759C27.2828 109.575 27.6834 110.324 28.2716 110.912C28.8598 111.501 29.6092 111.901 30.425 112.063C31.2409 112.226 32.0865 112.142 32.855 111.824C33.6235 111.506 34.2803 110.967 34.7424 110.275C35.2045 109.583 35.4512 108.77 35.4512 107.938C35.4499 106.823 35.0064 105.754 34.2179 104.966C33.4295 104.177 32.3604 103.734 31.2454 103.733ZM31.2454 109.488C30.9389 109.488 30.6394 109.397 30.3846 109.227C30.1298 109.057 29.9312 108.815 29.8139 108.531C29.6966 108.248 29.666 107.937 29.7258 107.636C29.7855 107.336 29.9331 107.06 30.1498 106.843C30.3665 106.626 30.6426 106.479 30.9432 106.419C31.2437 106.359 31.5553 106.39 31.8384 106.507C32.1215 106.624 32.3635 106.823 32.5338 107.078C32.704 107.332 32.7949 107.632 32.7949 107.938C32.7945 108.349 32.6311 108.743 32.3406 109.034C32.0501 109.324 31.6562 109.487 31.2454 109.488Z" fill="#FFFAFA"/>
<path d="M18.1477 38.623H11.7051C11.3529 38.623 11.0151 38.7629 10.766 39.012C10.5169 39.2611 10.377 39.5989 10.377 39.9511V46.3937C10.377 46.7459 10.5169 47.0837 10.766 47.3328C11.0151 47.5819 11.3529 47.7218 11.7051 47.7218H18.1477C18.4999 47.7218 18.8378 47.5819 19.0868 47.3328C19.3359 47.0837 19.4758 46.7459 19.4758 46.3937V39.9511C19.4758 39.5989 19.3359 39.2611 19.0868 39.012C18.8378 38.7629 18.4999 38.623 18.1477 38.623ZM16.8196 45.0656H13.0332V41.2793H16.8196V45.0656Z" fill="#FFFAFA"/>
<path d="M18.1477 54.6832H11.7051C11.3529 54.6832 11.0151 54.8231 10.766 55.0722C10.5169 55.3213 10.377 55.6591 10.377 56.0113V62.4539C10.377 62.8061 10.5169 63.144 10.766 63.393C11.0151 63.6421 11.3529 63.782 11.7051 63.782H18.1477C18.4999 63.782 18.8378 63.6421 19.0868 63.393C19.3359 63.144 19.4758 62.8061 19.4758 62.4539V56.0113C19.4758 55.6591 19.3359 55.3213 19.0868 55.0722C18.8378 54.8231 18.4999 54.6832 18.1477 54.6832ZM16.8196 61.1258H13.0332V57.3394H16.8196V61.1258Z" fill="#FFFAFA"/>
<path d="M18.1477 70.7434H11.7051C11.3529 70.7434 11.0151 70.8833 10.766 71.1324C10.5169 71.3815 10.377 71.7193 10.377 72.0715V78.5141C10.377 78.8663 10.5169 79.2041 10.766 79.4532C11.0151 79.7023 11.3529 79.8422 11.7051 79.8422H18.1477C18.4999 79.8422 18.8378 79.7023 19.0868 79.4532C19.3359 79.2041 19.4758 78.8663 19.4758 78.5141V72.0715C19.4758 71.7193 19.3359 71.3815 19.0868 71.1324C18.8378 70.8833 18.4999 70.7434 18.1477 70.7434ZM16.8196 77.186H13.0332V73.3996H16.8196V77.186Z" fill="#FFFAFA"/>
<path d="M45.4176 73.9647H25.9827C25.6305 73.9647 25.2927 74.1047 25.0436 74.3537C24.7945 74.6028 24.6546 74.9406 24.6546 75.2928C24.6546 75.6451 24.7945 75.9829 25.0436 76.232C25.2927 76.481 25.6305 76.621 25.9827 76.621H45.4176C45.7698 76.621 46.1076 76.481 46.3567 76.232C46.6058 75.9829 46.7457 75.6451 46.7457 75.2928C46.7457 74.9406 46.6058 74.6028 46.3567 74.3537C46.1076 74.1047 45.7698 73.9647 45.4176 73.9647Z" fill="#FFFAFA"/>
<path d="M45.4176 80.7395H25.9827C25.6305 80.7395 25.2927 80.8794 25.0436 81.1285C24.7945 81.3776 24.6546 81.7154 24.6546 82.0676C24.6546 82.4199 24.7945 82.7577 25.0436 83.0068C25.2927 83.2558 25.6305 83.3958 25.9827 83.3958H45.4176C45.7698 83.3958 46.1076 83.2558 46.3567 83.0068C46.6058 82.7577 46.7457 82.4199 46.7457 82.0676C46.7457 81.7154 46.6058 81.3776 46.3567 81.1285C46.1076 80.8794 45.7698 80.7395 45.4176 80.7395Z" fill="#FFFAFA"/>
<path d="M117.841 12.4843C117.032 11.5616 115.913 10.9657 114.696 10.8082C113.974 10.7152 113.145 10.6169 112.226 10.524V9.57038C112.228 8.7481 111.938 7.95179 111.408 7.32329C110.878 6.6948 110.141 6.27494 109.331 6.13851C105.582 5.50888 101.786 5.21111 97.9857 5.24866V3.83023C97.9848 2.97995 97.6468 2.16471 97.0458 1.56322C96.4448 0.961732 95.6299 0.623071 94.7796 0.621475H88.9359C86.6446 0.623696 84.4478 1.53469 82.8274 3.15459C81.207 4.7745 80.2953 6.97102 80.2924 9.26226V9.68726C78.5447 10.7987 76.9914 12.1896 75.6945 13.8044C75.4625 14.1007 75.1662 14.3403 74.8279 14.505C74.4897 14.6698 74.1183 14.7554 73.7421 14.7554C73.3659 14.7554 72.9945 14.6698 72.6563 14.505C72.318 14.3403 72.0217 14.1007 71.7898 13.8044C68.0338 9.10023 61.9749 6.30054 53.783 5.48507C47.3363 4.84491 41.2243 5.62054 38.1563 6.13851C37.345 6.27453 36.6084 6.6942 36.0776 7.32271C35.5469 7.95122 35.2566 8.74776 35.2584 9.57038V10.524C34.3393 10.6169 33.5105 10.7152 32.788 10.8082C31.572 10.9678 30.4553 11.5634 29.6453 12.4843C28.8353 13.4052 28.3871 14.5888 28.384 15.8152V17.2815H8.25758C6.30722 17.2834 4.43726 18.0589 3.0579 19.4377C1.67854 20.8166 0.902409 22.6863 0.899765 24.6366V109.772C0.901874 111.723 1.67775 113.593 3.05715 114.973C4.43655 116.352 6.30681 117.128 8.25758 117.13H45.5094L50.7466 120.706C52.0678 121.608 52.9811 122.994 53.2891 124.564L53.2897 124.566C53.366 124.953 53.4046 125.346 53.405 125.74V130.05C53.405 130.403 53.545 130.74 53.794 130.99C54.0431 131.239 54.3809 131.379 54.7332 131.379C55.0854 131.379 55.4232 131.239 55.6723 130.99C55.9214 130.74 56.0613 130.403 56.0613 130.05V125.74C56.0613 125.702 56.0583 125.664 56.0578 125.625H59.4805C59.8328 125.625 60.1706 125.485 60.4197 125.236C60.6687 124.987 60.8087 124.649 60.8087 124.297C60.8087 123.945 60.6687 123.607 60.4197 123.358C60.1706 123.109 59.8328 122.969 59.4805 122.969H55.6083C55.0042 121.156 53.8226 119.59 52.2443 118.512L44.8087 113.435C44.2603 113.059 43.8674 112.497 43.7029 111.853C43.5385 111.208 43.6138 110.526 43.9149 109.934C44.0816 109.607 44.3123 109.317 44.5933 109.081C44.8743 108.846 45.1999 108.669 45.5506 108.562C45.9013 108.454 46.27 108.419 46.6347 108.457C46.9995 108.495 47.3529 108.606 47.6739 108.783L52.1498 111.258C52.352 111.37 52.5799 111.427 52.8109 111.424C53.042 111.421 53.2682 111.357 53.4672 111.24C53.6662 111.123 53.8311 110.955 53.9457 110.755C54.0603 110.554 54.1206 110.327 54.1206 110.096V82.1471C54.1206 81.5095 54.3739 80.898 54.8247 80.4471C55.2756 79.9963 55.8871 79.743 56.5247 79.743C57.1623 79.743 57.7738 79.9963 58.2247 80.4471C58.6755 80.898 58.9288 81.5095 58.9288 82.1471V106.077C58.9288 106.429 59.0687 106.767 59.3178 107.016C59.5669 107.265 59.9047 107.405 60.2569 107.405C60.6092 107.405 60.947 107.265 61.1961 107.016C61.4451 106.767 61.5851 106.429 61.5851 106.077V97.5799C61.5851 96.8895 61.8593 96.2274 62.3475 95.7393C62.8357 95.2511 63.4978 94.9768 64.1882 94.9768C64.8786 94.9768 65.5407 95.2511 66.0289 95.7393C66.5171 96.2274 66.7913 96.8895 66.7913 97.5799V106.077C66.7913 106.429 66.9312 106.767 67.1803 107.016C67.4294 107.265 67.7672 107.405 68.1194 107.405C68.4717 107.405 68.8095 107.265 69.0586 107.016C69.3076 106.767 69.4476 106.429 69.4476 106.077V97.5799C69.4476 96.8895 69.7218 96.2274 70.21 95.7393C70.6982 95.2511 71.3603 94.9768 72.0507 94.9768C72.7411 94.9768 73.4032 95.2511 73.8914 95.7393C74.3796 96.2274 74.6538 96.8895 74.6538 97.5799V106.077C74.6538 106.429 74.7937 106.767 75.0428 107.016C75.2919 107.265 75.6297 107.405 75.9819 107.405C76.3342 107.405 76.672 107.265 76.9211 107.016C77.1701 106.767 77.3101 106.429 77.3101 106.077V97.5799C77.3101 96.8895 77.5843 96.2274 78.0725 95.7393C78.5607 95.2511 79.2228 94.9768 79.9132 94.9768C80.6036 94.9768 81.2657 95.2511 81.7539 95.7393C82.2421 96.2274 82.5163 96.8895 82.5163 97.5799V109.722C82.5174 111.521 82.1279 113.3 81.3747 114.934C80.6215 116.568 79.5226 118.019 78.1538 119.187C77.0557 120.125 76.174 121.289 75.5697 122.6C74.9654 123.911 74.6529 125.338 74.6538 126.782V130.05C74.6538 130.403 74.7937 130.74 75.0428 130.989C75.2919 131.238 75.6297 131.378 75.9819 131.378C76.3342 131.378 76.672 131.238 76.921 130.989C77.1701 130.74 77.31 130.403 77.31 130.05V126.782C77.3094 125.722 77.5388 124.675 77.9824 123.712C78.426 122.75 79.0732 121.895 79.8794 121.207C81.5402 119.79 82.8735 118.029 83.7874 116.046C84.7013 114.063 85.1739 111.905 85.1726 109.722V97.5799C85.174 96.5126 84.8503 95.4701 84.2444 94.5914C83.6385 93.7126 82.7792 93.0394 81.7811 92.6613C80.783 92.2831 79.6933 92.2181 78.6573 92.4748C77.6212 92.7316 76.688 93.2979 75.9819 94.0983C75.4906 93.5397 74.8858 93.0922 74.2079 92.7857C73.5301 92.4792 72.7946 92.3206 72.0507 92.3206C71.3067 92.3206 70.5713 92.4792 69.8934 92.7857C69.2156 93.0922 68.6108 93.5397 68.1194 94.0983C67.3232 93.192 66.2381 92.589 65.0481 92.3913C63.858 92.1936 62.6362 92.4135 61.5897 93.0136V68.8992C63.7788 69.8407 65.8542 71.0272 67.7761 72.4358C69.4977 73.7256 71.5909 74.4227 73.7421 74.4227C75.8932 74.4227 77.9864 73.7256 79.708 72.4358C85.0896 68.4408 95.3613 63.9305 113.729 65.1259C114.418 65.1705 115.108 65.0733 115.758 64.8404C116.408 64.6075 117.003 64.2437 117.506 63.7717C118.01 63.2996 118.411 62.7293 118.685 62.0959C118.959 61.4626 119.1 60.7797 119.1 60.0896V15.8153C119.1 14.5888 118.652 13.4045 117.841 12.4843ZM37.9146 9.57038C37.9145 9.3758 37.9832 9.18745 38.1087 9.03868C38.2341 8.88992 38.4081 8.79033 38.5999 8.75757C43.923 7.8571 61.9032 5.67897 69.7152 15.4619C70.4012 16.3278 71.3477 16.9499 72.4147 17.2361V54.3922C72.4147 54.7444 72.5546 55.0822 72.8037 55.3313C73.0527 55.5804 73.3906 55.7203 73.7428 55.7203C74.095 55.7203 74.4329 55.5804 74.6819 55.3313C74.931 55.0822 75.0709 54.7444 75.0709 54.3922V17.2361C76.1384 16.9503 77.0854 16.3282 77.7716 15.4619C78.5144 14.5335 79.3601 13.6923 80.2924 12.9544V21.8157C80.2904 22.3623 80.4656 22.8948 80.7917 23.3334C81.1178 23.7721 81.5773 24.0933 82.1013 24.2488C82.3425 24.3213 82.5931 24.358 82.845 24.3577C83.2629 24.3579 83.6743 24.2541 84.042 24.0556C84.4097 23.8572 84.7223 23.5703 84.9514 23.2208L86.5213 20.8648L88.0885 23.2208C88.3904 23.6756 88.8307 24.0211 89.3442 24.2062C89.8577 24.3913 90.4172 24.4061 90.9398 24.2485C91.4624 24.0909 91.9204 23.7692 92.246 23.331C92.5716 22.8929 92.7474 22.3616 92.7475 21.8157V15.5416C92.7475 15.1894 92.6076 14.8516 92.3585 14.6025C92.1095 14.3534 91.7716 14.2135 91.4194 14.2135C91.0672 14.2135 90.7293 14.3534 90.4803 14.6025C90.2312 14.8516 90.0913 15.1894 90.0913 15.5416V21.4359L87.6263 17.7304C87.5054 17.5475 87.3411 17.3974 87.148 17.2936C86.955 17.1897 86.7392 17.1354 86.52 17.1354C86.3007 17.1354 86.0849 17.1897 85.8919 17.2936C85.6988 17.3974 85.5345 17.5475 85.4136 17.7304L82.9486 21.4359V9.26226C82.9491 7.67475 83.5802 6.15245 84.7029 5.03017C85.8257 3.90788 87.3483 3.27752 88.9358 3.27773H94.7796C94.9257 3.27817 95.0657 3.33661 95.1688 3.4402C95.2719 3.54379 95.3297 3.68407 95.3294 3.83023V5.35226C94.7902 5.38679 94.2483 5.43106 93.7038 5.48507C92.8724 5.56741 92.064 5.67101 91.2786 5.79585C91.2782 5.79523 91.2776 5.79473 91.2769 5.79438C91.2762 5.79403 91.2754 5.79385 91.2746 5.79385C91.2739 5.79385 91.2731 5.79403 91.2724 5.79438C91.2717 5.79473 91.2711 5.79523 91.2706 5.79585C91.2149 5.80382 91.1591 5.81179 91.106 5.82241C90.8136 5.89011 90.5529 6.05485 90.3662 6.28978C90.1795 6.5247 90.0779 6.81594 90.078 7.11601V10.941C90.078 11.2932 90.2179 11.6311 90.467 11.8801C90.7161 12.1292 91.0539 12.2691 91.4061 12.2691C91.7584 12.2691 92.0962 12.1292 92.3452 11.8801C92.5943 11.6311 92.7342 11.2932 92.7342 10.941V8.27413C94.7378 8.02263 96.7553 7.8993 98.7746 7.90491C102.163 7.91478 105.545 8.19993 108.887 8.75757C109.078 8.79046 109.252 8.89017 109.377 9.03897C109.502 9.18778 109.57 9.37606 109.57 9.57038V54.8648C109.57 54.9787 109.547 55.0914 109.501 55.1958C109.455 55.3001 109.388 55.3936 109.304 55.4704C109.219 55.5491 109.118 55.609 109.008 55.6461C108.898 55.6832 108.782 55.6966 108.666 55.6855C89.5308 53.9776 79.5858 59.8851 75.3624 63.556C75.2705 63.6349 75.1731 63.7071 75.0709 63.7721V59.1066C75.0709 58.7544 74.931 58.4165 74.6819 58.1675C74.4328 57.9184 74.095 57.7785 73.7428 57.7785C73.3905 57.7785 73.0527 57.9184 72.8036 58.1675C72.5546 58.4165 72.4146 58.7544 72.4146 59.1066V63.7726C72.312 63.7075 72.2141 63.6351 72.1217 63.556C68.4136 60.3313 60.2935 55.3827 45.4052 55.3827C43.3439 55.3827 41.1499 55.4784 38.8203 55.6855C38.7049 55.6966 38.5885 55.6832 38.4786 55.6461C38.3687 55.609 38.2679 55.5491 38.1828 55.4704C38.0977 55.3942 38.0298 55.3009 37.9835 55.1964C37.9373 55.092 37.9138 54.979 37.9146 54.8648L37.9146 9.57038ZM8.25758 19.9377H28.384V25.979C28.3785 25.979 28.3734 25.9774 28.3679 25.9774H3.55602V24.6366C3.55751 23.3904 4.05342 22.1957 4.93489 21.3147C5.81636 20.4338 7.01135 19.9385 8.25758 19.9377ZM56.5247 77.0867C55.1831 77.0883 53.8968 77.6219 52.9482 78.5706C51.9995 79.5192 51.4659 80.8055 51.4643 82.1471V107.844L48.9591 106.459C47.8995 105.872 46.6733 105.66 45.4782 105.856C44.2831 106.052 43.1889 106.644 42.372 107.538C41.5551 108.432 41.0632 109.575 40.9756 110.783C40.888 111.991 41.2099 113.193 41.8893 114.196C41.9778 114.327 42.0723 114.455 42.1727 114.578C42.1439 114.543 42.1128 114.51 42.0849 114.474H8.25758C7.01108 114.472 5.81603 113.977 4.93462 113.095C4.05321 112.214 3.55742 111.019 3.55602 109.772V101.353H45.4176C45.7698 101.353 46.1076 101.214 46.3567 100.964C46.6058 100.715 46.7457 100.378 46.7457 100.025C46.7457 99.6731 46.6058 99.3353 46.3567 99.0862C46.1076 98.8371 45.7698 98.6972 45.4176 98.6972H3.55602V28.6336H28.3679C28.3734 28.6336 28.3785 28.6321 28.384 28.632V60.0896C28.3837 60.7797 28.525 61.4626 28.7992 62.0959C29.0734 62.7293 29.4746 63.2996 29.9781 63.7717C30.4815 64.2437 31.0764 64.6075 31.7261 64.8404C32.3757 65.0733 33.0662 65.1705 33.7549 65.1259C44.8839 64.4018 53.0363 65.7729 58.9335 67.8536V77.6979C58.1943 77.2958 57.3661 77.0857 56.5247 77.0867ZM116.444 60.0896C116.445 60.4164 116.378 60.7399 116.248 61.04C116.119 61.34 115.929 61.6102 115.691 61.8339C115.452 62.0575 115.17 62.2298 114.863 62.3401C114.555 62.4504 114.228 62.4963 113.902 62.4749C94.7291 61.2265 83.8624 66.0423 78.1249 70.3029C76.8603 71.2508 75.3225 71.7632 73.7421 71.7632C72.1617 71.7632 70.6239 71.2508 69.3593 70.3029C64.2513 66.5098 55.0766 62.2757 39.588 62.2757C37.6862 62.2757 35.6807 62.3394 33.5823 62.4749C33.2563 62.4957 32.9295 62.4494 32.622 62.3389C32.3146 62.2284 32.0331 62.0561 31.7949 61.8325C31.5567 61.609 31.3668 61.339 31.237 61.0392C31.1072 60.7395 31.0402 60.4163 31.0402 60.0896V15.8153C31.042 15.2341 31.2546 14.6733 31.6385 14.237C32.0225 13.8008 32.5518 13.5187 33.128 13.4432C33.7602 13.3609 34.4721 13.2759 35.2584 13.1935V54.8648C35.259 55.3485 35.3603 55.8268 35.5558 56.2692C35.7514 56.7116 36.0369 57.1085 36.3942 57.4345C36.7515 57.7606 37.1727 58.0087 37.6311 58.1631C38.0895 58.3174 38.5751 58.3747 39.0568 58.3312C57.2123 56.7109 66.4746 62.1642 70.3793 65.5615C71.3146 66.3669 72.5078 66.8099 73.7421 66.8099C74.9764 66.8099 76.1697 66.3669 77.1049 65.5615C81.0096 62.1642 90.272 56.7109 108.43 58.3312C108.912 58.375 109.397 58.3179 109.856 58.1636C110.314 58.0093 110.735 57.7611 111.092 57.435C111.449 57.1088 111.735 56.7118 111.93 56.2693C112.125 55.8268 112.226 55.3484 112.226 54.8648V13.1935C113.012 13.2758 113.724 13.3608 114.356 13.4432C114.932 13.5187 115.462 13.8007 115.846 14.237C116.23 14.6732 116.442 15.234 116.444 15.8152V60.0896Z" fill="#FFFAFA"/>
<path d="M83.4109 34.3393C83.7169 34.3396 84.0136 34.2342 84.2508 34.041C84.4909 33.8458 90.2587 29.2925 101.084 32.1383C101.425 32.2278 101.787 32.1784 102.091 32.0008C102.396 31.8232 102.617 31.532 102.706 31.1913C102.796 30.8507 102.746 30.4884 102.569 30.1841C102.391 29.8799 102.1 29.6587 101.759 29.5692C89.5392 26.3572 82.8394 31.7607 82.5602 31.9922C82.3504 32.1669 82.1996 32.4019 82.1283 32.6653C82.0569 32.9288 82.0686 33.2078 82.1616 33.4644C82.2546 33.721 82.4244 33.9427 82.648 34.0992C82.8716 34.2558 83.138 34.3396 83.4109 34.3393Z" fill="#FFFAFA"/>
<path d="M83.4088 42.0275C83.7182 42.0277 84.018 41.9195 84.2559 41.7217C84.3137 41.6737 90.1699 36.9537 101.084 39.8231C101.425 39.9126 101.787 39.8632 102.091 39.6856C102.396 39.508 102.617 39.2168 102.706 38.8762C102.796 38.5355 102.746 38.1732 102.569 37.869C102.391 37.5648 102.1 37.3435 101.759 37.254C89.5396 34.0422 82.8394 39.4454 82.5602 39.6771C82.3498 39.8515 82.1984 40.0866 82.1266 40.3503C82.0548 40.6139 82.066 40.8933 82.1588 41.1504C82.2516 41.4074 82.4215 41.6295 82.6452 41.7865C82.8689 41.9435 83.1355 42.0276 83.4088 42.0275Z" fill="#FFFAFA"/>
<path d="M83.4088 49.7123C83.7183 49.7126 84.018 49.6044 84.2559 49.4065C84.3137 49.3585 90.1699 44.6389 101.084 47.5079C101.425 47.5975 101.787 47.548 102.091 47.3704C102.396 47.1929 102.617 46.9017 102.706 46.561C102.796 46.2203 102.746 45.858 102.569 45.5538C102.391 45.2496 102.1 45.0284 101.759 44.9388C89.5396 41.7266 82.8394 47.1305 82.5602 47.3619C82.3498 47.5364 82.1984 47.7715 82.1266 48.0351C82.0548 48.2988 82.066 48.5782 82.1588 48.8352C82.2516 49.0922 82.4215 49.3144 82.6452 49.4714C82.8689 49.6283 83.1355 49.7125 83.4088 49.7123Z" fill="#FFFAFA"/>
<path d="M44.4919 31.1913C44.5816 31.5319 44.8028 31.8229 45.107 32.0005C45.4112 32.1781 45.7734 32.2276 46.114 32.1383C56.9307 29.2942 62.6985 33.839 62.9467 34.0406C63.2183 34.2648 63.5679 34.372 63.9186 34.3385C64.2692 34.305 64.5922 34.1336 64.8165 33.862C65.0407 33.5904 65.1479 33.2408 65.1144 32.8901C65.0809 32.5395 64.9095 32.2165 64.6379 31.9922C64.3586 31.7606 57.6587 26.3573 45.4388 29.5692C45.2701 29.6135 45.1118 29.6906 44.9729 29.7962C44.8341 29.9017 44.7173 30.0335 44.6294 30.1841C44.5415 30.3348 44.4841 30.5012 44.4605 30.6741C44.4369 30.8469 44.4476 31.0226 44.4919 31.1913Z" fill="#FFFAFA"/>
<path d="M45.4388 37.2541C45.0982 37.3436 44.807 37.5648 44.6294 37.869C44.4518 38.1732 44.4024 38.5355 44.4919 38.8762C44.5814 39.2169 44.8026 39.5081 45.1069 39.6857C45.4111 39.8632 45.7734 39.9127 46.1141 39.8232C56.9228 36.981 62.6908 41.5177 62.9462 41.725C63.2178 41.9494 63.5674 42.0566 63.918 42.0232C64.2687 41.9898 64.5917 41.8185 64.816 41.5469C65.0404 41.2753 65.1476 40.9257 65.1142 40.5751C65.0808 40.2244 64.9095 39.9014 64.6379 39.6771C64.3585 39.4455 57.658 34.0418 45.4388 37.2541Z" fill="#FFFAFA"/>
<path d="M45.4388 44.9389C45.0982 45.0284 44.807 45.2496 44.6294 45.5538C44.4518 45.858 44.4024 46.2203 44.4919 46.561C44.5814 46.9017 44.8026 47.1929 45.1069 47.3704C45.4111 47.548 45.7734 47.5975 46.1141 47.508C56.9228 44.6658 62.6908 49.2025 62.9462 49.4098C63.2178 49.6342 63.5674 49.7414 63.918 49.708C64.2687 49.6746 64.5917 49.5033 64.816 49.2317C65.0404 48.9601 65.1476 48.6105 65.1142 48.2599C65.0808 47.9092 64.9095 47.5862 64.6379 47.3619C64.3585 47.1303 57.658 41.7264 45.4388 44.9389Z" fill="#FFFAFA"/>
</svg>
