<svg width="41" height="45" viewBox="0 0 41 45" fill="none" xmlns="http://www.w3.org/2000/svg">
<path d="M34.5938 7.38281H6.40625C5.81158 7.38281 5.24128 7.64209 4.82078 8.1036C4.40029 8.56512 4.16406 9.19107 4.16406 9.84375V37.9688C4.16487 38.1474 4.20631 38.3229 4.28463 38.4795C4.36294 38.636 4.47564 38.7686 4.6125 38.8652C4.75357 38.9596 4.91387 39.0139 5.07887 39.0231C5.24387 39.0323 5.40835 38.9962 5.55742 38.918L10.25 36.334L14.9426 38.918C15.078 38.9871 15.2256 39.023 15.375 39.023C15.5244 39.023 15.672 38.9871 15.8074 38.918L20.5 36.334L25.1926 38.918C25.328 38.9871 25.4756 39.023 25.625 39.023C25.7744 39.023 25.922 38.9871 26.0574 38.918L30.75 36.334L35.4426 38.918C35.5783 38.9863 35.7257 39.0222 35.875 39.0234C36.0558 39.0229 36.233 38.9682 36.3875 38.8652C36.5244 38.7686 36.6371 38.636 36.7154 38.4795C36.7937 38.3229 36.8351 38.1474 36.8359 37.9688V9.84375C36.8359 9.19107 36.5997 8.56512 36.1792 8.1036C35.7587 7.64209 35.1884 7.38281 34.5938 7.38281ZM34.9141 36.2637L31.1824 34.207C31.047 34.1379 30.8994 34.102 30.75 34.102C30.6006 34.102 30.453 34.1379 30.3176 34.207L25.625 36.791L20.9324 34.207C20.797 34.1379 20.6494 34.102 20.5 34.102C20.3506 34.102 20.203 34.1379 20.0676 34.207L15.375 36.791L10.6824 34.207C10.547 34.1379 10.3994 34.102 10.25 34.102C10.1006 34.102 9.95302 34.1379 9.81758 34.207L6.08594 36.2637V9.84375C6.08594 9.75051 6.11968 9.66109 6.17975 9.59516C6.23982 9.52923 6.3213 9.49219 6.40625 9.49219H34.5938C34.6787 9.49219 34.7602 9.52923 34.8202 9.59516C34.8803 9.66109 34.9141 9.75051 34.9141 9.84375V36.2637ZM17.5211 16.4004C17.4383 16.2274 17.3139 16.0825 17.1615 15.9814C17.009 15.8803 16.8343 15.8269 16.6562 15.8269C16.4782 15.8269 16.3035 15.8803 16.151 15.9814C15.9986 16.0825 15.8742 16.2274 15.7914 16.4004L10.6664 27.6504C10.5517 27.9021 10.5329 28.1936 10.6139 28.4606C10.695 28.7276 10.8695 28.9483 11.0988 29.0742C11.3282 29.2001 11.5937 29.2208 11.837 29.1318C12.0803 29.0428 12.2814 28.8514 12.3961 28.5996L13.4051 26.3672H19.9074L20.9164 28.5996C20.9984 28.7739 21.1224 28.9201 21.2749 29.0224C21.4274 29.1247 21.6025 29.1791 21.7812 29.1797C21.9306 29.1784 22.0779 29.1425 22.2137 29.0742C22.4382 28.9429 22.6083 28.722 22.6888 28.457C22.7692 28.1921 22.754 27.9033 22.6461 27.6504L17.5211 16.4004ZM14.366 24.2578L16.6562 19.2305L18.9465 24.2578H14.366ZM31.7109 22.5C31.7109 22.7797 31.6097 23.048 31.4295 23.2458C31.2493 23.4436 31.0049 23.5547 30.75 23.5547H28.5078V26.0156C28.5078 26.2953 28.4066 26.5636 28.2264 26.7614C28.0462 26.9592 27.8017 27.0703 27.5469 27.0703C27.292 27.0703 27.0476 26.9592 26.8674 26.7614C26.6872 26.5636 26.5859 26.2953 26.5859 26.0156V23.5547H24.3438C24.0889 23.5547 23.8445 23.4436 23.6643 23.2458C23.4841 23.048 23.3828 22.7797 23.3828 22.5C23.3828 22.2203 23.4841 21.952 23.6643 21.7542C23.8445 21.5564 24.0889 21.4453 24.3438 21.4453H26.5859V18.9844C26.5859 18.7047 26.6872 18.4364 26.8674 18.2386C27.0476 18.0408 27.292 17.9297 27.5469 17.9297C27.8017 17.9297 28.0462 18.0408 28.2264 18.2386C28.4066 18.4364 28.5078 18.7047 28.5078 18.9844V21.4453H30.75C31.0049 21.4453 31.2493 21.5564 31.4295 21.7542C31.6097 21.952 31.7109 22.2203 31.7109 22.5Z" fill="white"/>
</svg>
