<svg width="29" height="20" viewBox="0 0 29 20" fill="none" xmlns="http://www.w3.org/2000/svg">
<path d="M26.5833 19.3333H2.41667C1.08387 19.3333 0 18.2495 0 16.9167V2.41667C0 1.08387 1.08387 0 2.41667 0H26.5833C27.9161 0 29 1.08387 29 2.41667V16.9167C29 18.2495 27.9161 19.3333 26.5833 19.3333ZM2.41667 1.20833C1.75027 1.20833 1.20833 1.75027 1.20833 2.41667V16.9167C1.20833 17.5831 1.75027 18.125 2.41667 18.125H26.5833C27.2497 18.125 27.7917 17.5831 27.7917 16.9167V2.41667C27.7917 1.75027 27.2497 1.20833 26.5833 1.20833H2.41667Z" fill="#2568FB"/>
<path d="M14.5 12.8029L3.90111 5.94502C3.62078 5.76317 3.54042 5.38979 3.72167 5.10946C3.90292 4.82913 4.2769 4.74938 4.55723 4.93002L14.5 11.3638L24.4428 4.93002C24.7231 4.74938 25.0971 4.82913 25.2783 5.10946C25.4596 5.38979 25.3792 5.76317 25.0989 5.94502L14.5 12.8029Z" fill="#2568FB"/>
<path d="M3.62562 15.7083C3.43048 15.7083 3.23835 15.6141 3.12235 15.4395C2.93687 15.1615 3.01179 14.787 3.28971 14.6015L8.72721 10.9765C9.00512 10.791 9.38031 10.8659 9.56519 11.1438C9.75067 11.4218 9.67575 11.7963 9.39783 11.9818L3.96033 15.6068C3.85702 15.6751 3.74042 15.7083 3.62562 15.7083Z" fill="#2568FB"/>
<path d="M25.3744 15.7083C25.2596 15.7083 25.143 15.6751 25.0397 15.6068L19.6022 11.9818C19.3243 11.7963 19.2494 11.4218 19.4349 11.1438C19.6197 10.8659 19.9943 10.791 20.2728 10.9765L25.7103 14.6015C25.9883 14.787 26.0632 15.1615 25.8777 15.4395C25.7617 15.6141 25.5696 15.7083 25.3744 15.7083Z" fill="#2568FB"/>
</svg>
