<svg width="18" height="22" viewBox="0 0 18 22" fill="none" xmlns="http://www.w3.org/2000/svg">
<path d="M9 14.6666C9.50626 14.6666 9.91667 14.2562 9.91667 13.75C9.91667 13.2437 9.50626 12.8333 9 12.8333C8.49374 12.8333 8.08334 13.2437 8.08334 13.75C8.08334 14.2562 8.49374 14.6666 9 14.6666Z" fill="#2568FB"/>
<path d="M9 17.4167C8.74654 17.4167 8.54166 17.2118 8.54166 16.9583V14.2083C8.54166 13.9549 8.74654 13.75 9 13.75C9.25346 13.75 9.45833 13.9549 9.45833 14.2083V16.9583C9.45833 17.2118 9.25346 17.4167 9 17.4167Z" fill="#2568FB"/>
<path d="M17.25 22H0.75V8.25H17.25V22ZM1.66667 21.0833H16.3333V9.16667H1.66667V21.0833Z" fill="#2568FB"/>
<path d="M14.5 8.70833H13.5833V5.5C13.5833 2.97275 11.5273 0.916667 9 0.916667C6.47275 0.916667 4.41667 2.97275 4.41667 5.5V8.70833H3.5V5.5C3.5 2.46721 5.96721 0 9 0C12.0328 0 14.5 2.46721 14.5 5.5V8.70833Z" fill="#2568FB"/>
</svg>
