<svg width="25" height="25" viewBox="0 0 25 25" fill="none" xmlns="http://www.w3.org/2000/svg">
<path fill-rule="evenodd" clip-rule="evenodd" d="M13.3533 25H1.37988C0.617578 25 0 24.382 0 23.6201V1.37988C0 0.617578 0.617578 0 1.37988 0H23.6203C24.3822 0 25 0.617578 25 1.37988V23.6201C25 24.3822 24.3822 25 23.6203 25H17.2496V15.3186H20.4992L20.9857 11.5455H17.2496V9.13672C17.2496 8.04434 17.5529 7.3 19.1193 7.3L21.1172 7.29922V3.92461C20.7717 3.87871 19.5857 3.77598 18.2059 3.77598C15.3252 3.77598 13.3531 5.53438 13.3531 8.76328V11.5457H10.0953V15.3187H13.3533V25Z" fill="#4460A0"/>
</svg>
