<svg width="48" height="48" viewBox="0 0 48 48" fill="none" xmlns="http://www.w3.org/2000/svg">
<g clip-path="url(#clip0_27_2)">
<path d="M30.75 33H17.25C17.0998 33.0001 16.953 32.9552 16.8286 32.8709C16.7043 32.7867 16.6081 32.667 16.5525 32.5275L15.8025 30.6675C15.6362 30.25 15.3488 29.8919 14.9772 29.6393C14.6056 29.3866 14.1668 29.2511 13.7175 29.25H5.99999C5.88356 29.25 5.76872 29.2229 5.66458 29.1708C5.56044 29.1187 5.46985 29.0431 5.39999 28.95C5.32384 28.8586 5.27053 28.7504 5.24445 28.6343C5.21836 28.5183 5.22026 28.3977 5.24999 28.2825L11.3625 7.92C11.5969 7.14046 12.0785 6.45835 12.7347 5.97668C13.3909 5.49501 14.186 5.23995 15 5.25H33C33.8063 5.2497 34.5912 5.50927 35.2383 5.99022C35.8854 6.47117 36.3603 7.14788 36.5925 7.92L42.75 28.2825C42.7838 28.3954 42.7906 28.5146 42.7697 28.6306C42.7489 28.7466 42.701 28.856 42.63 28.95C42.5601 29.0431 42.4695 29.1187 42.3654 29.1708C42.2613 29.2229 42.1464 29.25 42.03 29.25H34.2825C33.8319 29.2496 33.3915 29.3844 33.0184 29.6372C32.6453 29.8899 32.3567 30.2488 32.19 30.6675L31.44 32.5275C31.3849 32.6659 31.2898 32.7847 31.167 32.8688C31.0441 32.953 30.8989 32.9986 30.75 33ZM17.76 31.5H30.24L30.8025 30.105C31.0811 29.4098 31.5614 28.814 32.1817 28.3943C32.8019 27.9746 33.5336 27.7502 34.2825 27.75H40.995L35.175 8.355C35.0353 7.88796 34.7476 7.47894 34.3554 7.18948C33.9631 6.90002 33.4875 6.74579 33 6.75H15C14.5151 6.74904 14.0428 6.90477 13.6536 7.19399C13.2644 7.48321 12.979 7.89043 12.84 8.355L7.00499 27.75H13.755C14.5039 27.7502 15.2356 27.9746 15.8558 28.3943C16.476 28.814 16.9564 29.4098 17.235 30.105L17.76 31.5Z" fill="white"/>
<path d="M39 42.75H9C8.00544 42.75 7.05161 42.3549 6.34835 41.6517C5.64509 40.9484 5.25 39.9946 5.25 39V28.5C5.25 28.3011 5.32902 28.1103 5.46967 27.9697C5.61032 27.829 5.80109 27.75 6 27.75H13.7175C14.4664 27.7502 15.1981 27.9746 15.8183 28.3943C16.4386 28.814 16.9189 29.4098 17.1975 30.105L17.76 31.5H30.24L30.8025 30.105C31.0811 29.4098 31.5614 28.814 32.1817 28.3943C32.8019 27.9746 33.5336 27.7502 34.2825 27.75H42C42.1989 27.75 42.3897 27.829 42.5303 27.9697C42.671 28.1103 42.75 28.3011 42.75 28.5V39C42.75 39.9946 42.3549 40.9484 41.6516 41.6517C40.9484 42.3549 39.9946 42.75 39 42.75ZM6.75 29.25V39C6.75 39.5967 6.98705 40.169 7.40901 40.591C7.83097 41.0129 8.40326 41.25 9 41.25H39C39.5967 41.25 40.169 41.0129 40.591 40.591C41.0129 40.169 41.25 39.5967 41.25 39V29.25H34.2825C33.8319 29.2496 33.3915 29.3844 33.0184 29.6372C32.6453 29.8899 32.3567 30.2489 32.19 30.6675L31.44 32.5275C31.3849 32.6659 31.2899 32.7847 31.167 32.8688C31.0441 32.953 30.8989 32.9987 30.75 33H17.25C17.0998 33.0001 16.953 32.9552 16.8286 32.8709C16.7043 32.7867 16.6081 32.667 16.5525 32.5275L15.8025 30.6675C15.6362 30.25 15.3488 29.8919 14.9772 29.6393C14.6056 29.3866 14.1668 29.2511 13.7175 29.25H6.75Z" fill="white"/>
<path d="M32.25 13.5C32.0864 13.5085 31.9246 13.4633 31.7892 13.3712C31.6537 13.2791 31.5522 13.1452 31.5 12.99L30.96 11.25H17.04L16.5 12.99C16.4363 13.179 16.3002 13.3349 16.1216 13.4235C15.943 13.5121 15.7364 13.5262 15.5475 13.4625C15.3585 13.3988 15.2026 13.2627 15.114 13.0841C15.0253 12.9055 15.0113 12.699 15.075 12.51L15.825 10.26C15.8731 10.1169 15.9633 9.99173 16.0837 9.90074C16.2041 9.80975 16.3492 9.75721 16.5 9.75H31.5C31.6635 9.74146 31.8254 9.78669 31.9608 9.87878C32.0962 9.97087 32.1978 10.1048 32.25 10.26L33 12.51C33.0371 12.6082 33.0531 12.7131 33.0471 12.8179C33.0411 12.9227 33.0131 13.0251 32.965 13.1184C32.917 13.2117 32.8499 13.2939 32.768 13.3596C32.6862 13.4253 32.5915 13.4732 32.49 13.5C32.4103 13.5103 32.3297 13.5103 32.25 13.5Z" fill="white"/>
<path d="M33.75 19.5C33.5864 19.5085 33.4246 19.4633 33.2892 19.3712C33.1537 19.2791 33.0522 19.1452 33 18.99L32.46 17.25H15.54L15 18.99C14.9363 19.179 14.8002 19.3349 14.6216 19.4235C14.443 19.5121 14.2364 19.5262 14.0475 19.4625C13.8585 19.3988 13.7026 19.2627 13.614 19.0841C13.5253 18.9055 13.5113 18.699 13.575 18.51L14.325 16.26C14.3731 16.1169 14.4633 15.9917 14.5837 15.9007C14.7041 15.8097 14.8492 15.7572 15 15.75H33C33.1635 15.7415 33.3254 15.7867 33.4608 15.8788C33.5962 15.9709 33.6978 16.1048 33.75 16.26L34.5 18.51C34.5371 18.6082 34.5531 18.7131 34.5471 18.8179C34.5411 18.9227 34.5131 19.0251 34.465 19.1184C34.417 19.2117 34.3499 19.2939 34.268 19.3596C34.1862 19.4253 34.0915 19.4732 33.99 19.5C33.9103 19.5103 33.8297 19.5103 33.75 19.5Z" fill="white"/>
<path d="M35.25 25.5C35.0864 25.5085 34.9246 25.4633 34.7892 25.3712C34.6537 25.2791 34.5522 25.1452 34.5 24.99L33.96 23.25H14.04L13.5 24.99C13.4685 25.0836 13.4188 25.17 13.3539 25.2444C13.289 25.3188 13.21 25.3796 13.1216 25.4235C13.0331 25.4674 12.9369 25.4934 12.8384 25.5001C12.7399 25.5068 12.641 25.494 12.5475 25.4625C12.4539 25.431 12.3675 25.3813 12.2931 25.3164C12.2187 25.2515 12.1578 25.1726 12.114 25.0841C12.0701 24.9957 12.0441 24.8994 12.0374 24.8009C12.0307 24.7024 12.0435 24.6036 12.075 24.51L12.825 22.26C12.8731 22.1169 12.9633 21.9917 13.0837 21.9007C13.2041 21.8097 13.3492 21.7572 13.5 21.75H34.5C34.6635 21.7415 34.8254 21.7867 34.9608 21.8788C35.0962 21.9709 35.1978 22.1048 35.25 22.26L36 24.51C36.0371 24.6082 36.0531 24.7131 36.0471 24.8179C36.0411 24.9227 36.0131 25.0251 35.965 25.1184C35.917 25.2117 35.8499 25.2939 35.768 25.3596C35.6862 25.4253 35.5915 25.4732 35.49 25.5C35.4103 25.5103 35.3296 25.5103 35.25 25.5Z" fill="white"/>
</g>
<defs>
<clipPath id="clip0_27_2">
<rect width="48" height="48" fill="white"/>
</clipPath>
</defs>
</svg>
