<svg width="27" height="30" viewBox="0 0 27 30" fill="none" xmlns="http://www.w3.org/2000/svg">
<path d="M4.39167 29.6437C3.61667 29.6437 2.84167 29.3854 2.19583 28.9979C0.775 28.2229 0 26.6729 0 25.1229V4.45625C0 2.90625 0.904167 1.35625 2.19583 0.58125C3.61667 -0.19375 5.29583 -0.19375 6.71667 0.58125L9.94583 2.38958C10.2042 2.51875 10.3333 2.77708 10.2042 3.16458C9.94583 3.42292 9.6875 3.55208 9.42917 3.55208H6.2V28.7396C6.2 28.9979 6.07083 29.2562 5.8125 29.3854C5.29583 29.5146 4.77917 29.6437 4.39167 29.6437ZM4.39167 1.22708C3.875 1.22708 3.22917 1.35625 2.84167 1.61458C1.67917 2.26042 1.1625 3.29375 1.1625 4.45625V25.1229C1.1625 26.2854 1.80833 27.3188 2.7125 27.9646C3.35833 28.3521 4.00417 28.4813 4.90833 28.3521V2.90625C4.90833 2.51875 5.16667 2.26042 5.55417 2.26042H6.975L5.94167 1.61458C5.425 1.35625 4.90833 1.22708 4.39167 1.22708Z" fill="white"/>
<path d="M23.1208 19.4396C22.9917 19.4396 22.8625 19.4396 22.7333 19.3104C22.475 19.1813 22.475 18.9229 22.475 18.7938V10.7854C22.475 10.5271 22.6042 10.3979 22.7333 10.2688C22.9917 10.1396 23.1208 10.1396 23.3792 10.2688L24.5417 10.9146C25.9625 11.6896 26.7375 13.2396 26.7375 14.7896C26.7375 16.3396 25.8333 17.8896 24.5417 18.6646L23.5083 19.3104C23.3792 19.4396 23.25 19.4396 23.1208 19.4396ZM23.7667 11.9479V17.6312L23.8958 17.5021C24.9292 16.9854 25.4458 15.8229 25.4458 14.6604C25.4458 13.6271 24.9292 12.5938 23.7667 11.9479Z" fill="white"/>
<path d="M5.55416 29.3854C5.42499 29.3854 5.29582 29.3854 5.16666 29.2562C5.03749 29.1271 4.90833 28.9979 4.90833 28.7396V2.90625C4.90833 2.51875 5.16666 2.26041 5.55416 2.26041H23.1208C23.5083 2.26041 23.7667 2.51875 23.7667 2.90625V18.7937C23.7667 19.0521 23.6375 19.1812 23.5083 19.3104L6.58749 28.9979C6.32916 29.1271 6.07082 29.2562 5.81249 29.2562C5.81249 29.3854 5.68333 29.3854 5.55416 29.3854ZM6.19999 3.55208V27.7062L22.475 18.2771V3.55208H6.19999Z" fill="white"/>
<path d="M18.7292 15.5646C18.6 15.5646 18.3417 15.4354 18.2125 15.4354L15.3708 12.5937L12.5292 15.4354C12.4 15.5646 12.0125 15.6937 11.8833 15.5646C11.625 15.4354 11.4958 15.1771 11.4958 14.9187V2.90624C11.4958 2.51874 11.7542 2.26041 12.1417 2.26041H18.6C18.9875 2.26041 19.2458 2.51874 19.2458 2.90624V14.9187C19.2458 15.1771 19.1167 15.4354 18.8583 15.5646C18.9875 15.5646 18.8583 15.5646 18.7292 15.5646ZM15.5 11.0437C15.6292 11.0437 15.8875 11.0437 16.0167 11.1729L18.2125 13.3687V3.55207H13.0458V13.3687L15.2417 11.1729C15.2417 11.0437 15.3708 11.0437 15.5 11.0437Z" fill="white"/>
</svg>
