<svg width="73" height="77" viewBox="0 0 73 77" fill="none" xmlns="http://www.w3.org/2000/svg">
<path d="M72.75 40.125C72.75 60.1459 56.5209 76.375 36.5 76.375C16.4799 76.375 0.25 60.1459 0.25 40.125C0.25 20.1049 16.4799 3.875 36.5 3.875C56.5209 3.875 72.75 20.1049 72.75 40.125Z" fill="#284FA4"/>
<path d="M72.75 36.5C72.75 56.5209 56.5209 72.75 36.5 72.75C16.4799 72.75 0.25 56.5209 0.25 36.5C0.25 16.4799 16.4799 0.25 36.5 0.25C56.5209 0.25 72.75 16.4799 72.75 36.5Z" fill="#2568FB"/>
<path d="M51 25.625L29.25 47.375L20.1875 38.3125L12.4844 45.9249L21.5469 54.9874L28.7969 62.2374L29.25 62.5998L58.7031 33.2374L51 25.625Z" fill="#284FA4"/>
<path d="M51 22L29.25 43.75L20.1875 34.6875L12.4844 42.2999L21.5469 51.3624L28.7969 58.6124L29.25 58.9748L58.7031 29.6124L51 22Z" fill="#ECF0F1"/>
</svg>
