<svg width="40" height="40" viewBox="0 0 40 40" fill="none" xmlns="http://www.w3.org/2000/svg">
<g clip-path="url(#clip0_27_440)">
<path d="M20 6.875C17.3423 6.875 14.7443 7.6631 12.5345 9.13963C10.3247 10.6162 8.60242 12.7148 7.58537 15.1702C6.56831 17.6256 6.30221 20.3274 6.8207 22.934C7.33919 25.5406 8.61898 27.935 10.4983 29.8142C12.3775 31.6935 14.7719 32.9733 17.3785 33.4918C19.9851 34.0103 22.6869 33.7442 25.1423 32.7271C27.5977 31.7101 29.6963 29.9878 31.1729 27.778C32.6494 25.5682 33.4375 22.9702 33.4375 20.3125C33.4375 16.7487 32.0218 13.3308 29.5017 10.8108C26.9817 8.29073 23.5638 6.875 20 6.875ZM29.8312 27.5C28.9402 26.9776 27.9977 26.5482 27.0187 26.2188C27.486 24.4957 27.7421 22.7223 27.7812 20.9375H32.1562C32.0404 23.3054 31.2319 25.5873 29.8312 27.5ZM7.82812 20.9375H12.2187C12.2567 22.7232 12.5117 24.4977 12.9781 26.2219C11.9992 26.5514 11.0567 26.9807 10.1656 27.5031C8.7599 25.5909 7.94706 23.3078 7.82812 20.9375ZM10.1687 13.125C11.0598 13.6474 12.0023 14.0768 12.9812 14.4062C12.514 16.1293 12.2579 17.9027 12.2187 19.6875H7.84375C7.95964 17.3196 8.76806 15.0377 10.1687 13.125ZM20.625 15.5062C22.3716 15.4655 24.1074 15.2201 25.7969 14.775C26.2413 16.3764 26.4879 18.0262 26.5312 19.6875H20.625V15.5062ZM20.625 14.2562V8.18438C22.5937 8.55313 24.3406 10.625 25.4156 13.5844C23.85 13.9924 22.2424 14.2179 20.625 14.2562ZM19.375 8.18438V14.2562C17.7576 14.2179 16.15 13.9924 14.5844 13.5844C15.6594 10.625 17.4062 8.55313 19.375 8.18438ZM19.375 15.5062V19.6875H13.4687C13.5121 18.0262 13.7587 16.3764 14.2031 14.775C15.8926 15.2201 17.6284 15.4655 19.375 15.5062ZM13.4687 20.9375H19.375V25.1187C17.6284 25.1595 15.8926 25.4049 14.2031 25.85C13.7587 24.2486 13.5121 22.5988 13.4687 20.9375ZM19.375 26.3687V32.4406C17.4062 32.0719 15.6594 30 14.5844 27.0406C16.15 26.6326 17.7576 26.4071 19.375 26.3687ZM20.625 32.4406V26.3687C22.2424 26.4071 23.85 26.6326 25.4156 27.0406C24.3406 30 22.5937 32.0719 20.625 32.4406ZM20.625 25.1187V20.9375H26.5312C26.4879 22.5988 26.2413 24.2486 25.7969 25.85C24.1074 25.4049 22.3716 25.1595 20.625 25.1187ZM27.7812 19.6875C27.7433 17.9018 27.4883 16.1273 27.0219 14.4031C28.0008 14.0736 28.9433 13.6443 29.8344 13.1219C31.2457 15.0323 32.064 17.3155 32.1875 19.6875H27.7812ZM29.0312 12.1406C28.2712 12.5727 27.4717 12.9316 26.6437 13.2125C26.1099 11.5942 25.2458 10.1045 24.1062 8.8375C25.9956 9.5165 27.6883 10.6511 29.0344 12.1406H29.0312ZM15.8906 8.84063C14.7511 10.1076 13.887 11.5974 13.3531 13.2156C12.5251 12.9347 11.7257 12.5758 10.9656 12.1438C12.3108 10.6546 14.0024 9.52008 15.8906 8.84063ZM10.9656 28.4844C11.7257 28.0523 12.5251 27.6934 13.3531 27.4125C13.887 29.0308 14.7511 30.5205 15.8906 31.7875C14.0024 31.108 12.3108 29.9735 10.9656 28.4844ZM24.1094 31.7844C25.2489 30.5174 26.113 29.0276 26.6469 27.4094C27.4749 27.6903 28.2743 28.0492 29.0344 28.4813C27.6892 29.9704 25.9976 31.1049 24.1094 31.7844Z" fill="white"/>
<path d="M20 2.46472e-07C16.5069 0.000591336 13.0749 0.916023 10.0456 2.65518C7.01629 4.39433 4.49528 6.89656 2.73352 9.91279C0.971755 12.929 0.0306823 16.3541 0.00396733 19.847C-0.0227477 23.34 0.865827 26.779 2.58125 29.8219L0.021873 39.1969C-0.00595828 39.2905 -0.011472 39.3893 0.00577396 39.4854C0.0230199 39.5815 0.0625457 39.6722 0.121182 39.7503C0.179819 39.8284 0.255935 39.8917 0.343427 39.935C0.430919 39.9784 0.527354 40.0006 0.624998 40C0.6789 40.0004 0.732579 39.9931 0.784373 39.9781L10.2812 37.4781C12.9505 38.9628 15.9244 39.8165 18.9747 39.9735C22.025 40.1306 25.0709 39.5869 27.8785 38.3842C30.6861 37.1815 33.181 35.3517 35.1717 33.0352C37.1624 30.7186 38.5961 27.9769 39.3628 25.0203C40.1295 22.0637 40.2088 18.9708 39.5947 15.9788C38.9806 12.9868 37.6893 10.1751 35.82 7.7596C33.9506 5.34406 31.5529 3.38877 28.8106 2.0437C26.0683 0.698628 23.0544 -0.000479235 20 2.46472e-07ZM20 38.75C16.7278 38.7444 13.514 37.8825 10.6781 36.25C10.5829 36.196 10.4751 36.168 10.3656 36.1688C10.312 36.1688 10.2585 36.1751 10.2062 36.1875L1.5125 38.4938L3.85312 29.9C3.87489 29.8201 3.88057 29.7367 3.86984 29.6547C3.85911 29.5726 3.83218 29.4935 3.79062 29.4219C1.71535 25.8513 0.877004 21.6954 1.40575 17.5995C1.9345 13.5035 3.80075 9.69679 6.71475 6.77025C9.62875 3.84371 13.4275 1.96112 17.5211 1.41479C21.6147 0.868453 25.7741 1.68894 29.3536 3.74886C32.9331 5.80878 35.7324 8.99287 37.3167 12.8068C38.9011 16.6206 39.182 20.8509 38.1158 24.8408C37.0495 28.8307 34.6958 32.3569 31.4201 34.872C28.1444 37.3871 24.1299 38.7503 20 38.75Z" fill="white"/>
</g>
<defs>
<clipPath id="clip0_27_440">
<rect width="40" height="40" fill="white"/>
</clipPath>
</defs>
</svg>
