<svg width="51" height="51" viewBox="0 0 51 51" fill="none" xmlns="http://www.w3.org/2000/svg">
<path d="M48.4929 13.8527C48.4929 9.06147 43.6519 5.16475 37.7002 5.16475C35.8485 5.15574 34.017 5.54896 32.3322 6.31723H6.92488C5.75372 6.31881 4.63099 6.78475 3.80286 7.61288C2.97472 8.44101 2.50878 9.56375 2.5072 10.7349V35.3852C2.50852 36.5565 2.97438 37.6794 3.80257 38.5075C4.63075 39.3357 5.75364 39.8016 6.92488 39.8029H20.0086V44.8242H16.323C16.1883 44.8242 16.0591 44.8777 15.9638 44.973C15.8685 45.0683 15.815 45.1975 15.815 45.3322C15.815 45.467 15.8685 45.5962 15.9638 45.6914C16.0591 45.7867 16.1883 45.8402 16.323 45.8402H30.9656C31.1003 45.8402 31.2295 45.7867 31.3248 45.6914C31.4201 45.5962 31.4736 45.467 31.4736 45.3322C31.4736 45.1975 31.4201 45.0683 31.3248 44.973C31.2295 44.8777 31.1003 44.8242 30.9656 44.8242H27.2801V39.8029H40.3627C41.534 39.8016 42.6569 39.3357 43.4851 38.5075C44.3133 37.6794 44.7791 36.5565 44.7804 35.3852V20.404C47.0535 18.8102 48.4929 16.4644 48.4929 13.8527ZM26.263 44.8242H21.0246V39.8029H26.263V44.8242ZM40.3627 38.7919H6.92488C6.02303 38.7908 5.15841 38.4321 4.52071 37.7944C3.883 37.1567 3.52427 36.2921 3.52322 35.3902V34.0664H43.7654V35.3822C43.7651 36.2848 43.4066 37.1503 42.7686 37.7887C42.1306 38.4271 41.2653 38.7861 40.3627 38.7869V38.7919ZM12.2968 22.4918C11.674 22.492 11.0652 22.3075 10.5472 21.9616C10.0293 21.6158 9.62559 21.1241 9.38713 20.5488C9.14866 19.9734 9.08616 19.3403 9.20754 18.7295C9.32892 18.1186 9.62872 17.5575 10.069 17.1171C10.5093 16.6766 11.0704 16.3766 11.6812 16.2551C12.292 16.1335 12.9251 16.1958 13.5005 16.4341C14.0759 16.6724 14.5677 17.0759 14.9138 17.5937C15.2598 18.1116 15.4445 18.7204 15.4445 19.3431C15.4437 20.1778 15.1118 20.9781 14.5217 21.5684C13.9316 22.1586 13.1315 22.4907 12.2968 22.4918ZM13.3567 23.5078C14.1557 23.5057 14.9474 23.661 15.6864 23.9649C16.4254 24.2687 17.0973 24.7152 17.6638 25.2789L20.5783 28.1675C20.6281 28.2177 20.6879 28.2566 20.7538 28.2819C20.8198 28.3071 20.8903 28.3181 20.9608 28.314C21.0312 28.3105 21.1 28.2924 21.1629 28.2608C21.2259 28.2293 21.2815 28.1849 21.3264 28.1307L24.5039 24.2887C24.6422 24.1242 24.8384 24.0191 25.052 23.9952C25.2656 23.9713 25.4802 24.0304 25.6514 24.1603C25.7431 24.2262 25.8203 24.3102 25.8783 24.407C25.9364 24.5038 25.9741 24.6115 25.9891 24.7234C26.0041 24.8353 25.9961 24.949 25.9657 25.0577C25.9352 25.1665 25.8828 25.2678 25.8118 25.3556L21.5366 30.6488C21.4608 30.7425 21.3663 30.8195 21.2593 30.8748C21.1522 30.9302 21.0348 30.9627 20.9145 30.9704C20.7942 30.9781 20.6736 30.9607 20.5604 30.9194C20.4472 30.8781 20.3437 30.8138 20.2566 30.7305L17.3321 27.9315C17.2603 27.8624 17.1699 27.816 17.0719 27.798C16.974 27.7801 16.8729 27.7913 16.7814 27.8304C16.6898 27.8695 16.6118 27.9347 16.557 28.0179C16.5022 28.101 16.4732 28.1985 16.4734 28.298V33.0534H7.39304V27.1934C7.39462 26.2164 7.78343 25.2799 8.47426 24.589C9.16509 23.8982 10.1016 23.5094 11.0786 23.5078H13.3567ZM43.7644 33.0534H17.4855V29.4844L19.5504 31.4616C19.7391 31.6423 19.9632 31.7818 20.2086 31.8713C20.4541 31.9608 20.7154 31.9983 20.9761 31.9816C21.2368 31.9648 21.4912 31.8941 21.7231 31.7739C21.955 31.6537 22.1595 31.4867 22.3235 31.2833L26.5957 25.998C26.9066 25.6159 27.0532 25.1261 27.0033 24.636C26.9534 24.1459 26.7111 23.6956 26.3296 23.384C25.948 23.0724 25.4585 22.9249 24.9683 22.9738C24.4781 23.0228 24.0274 23.2643 23.715 23.6453L20.8981 27.0499L18.379 24.5597C17.4056 23.5934 16.1733 22.9295 14.8309 22.6482C15.5222 22.1174 16.0295 21.3831 16.2813 20.5486C16.533 19.7142 16.5165 18.8218 16.2341 17.9973C15.9516 17.1727 15.4174 16.4576 14.7069 15.9529C13.9964 15.4481 13.1454 15.179 12.2738 15.1837C11.4022 15.1883 10.5541 15.4665 9.84902 15.9788C9.14394 16.4912 8.61746 17.2119 8.34383 18.0394C8.07019 18.8669 8.06321 19.7595 8.32386 20.5912C8.5845 21.4228 9.09964 22.1518 9.79662 22.6751C8.81321 22.9548 7.94752 23.547 7.33028 24.3621C6.71303 25.1771 6.37774 26.1709 6.37503 27.1934V33.0524H3.52322V10.7349C3.52427 9.83305 3.883 8.96844 4.52071 8.33073C5.15841 7.69302 6.02303 7.3343 6.92488 7.33324H30.5801C28.3339 8.92699 26.9135 11.2588 26.9135 13.8527C26.9141 15.0258 27.2017 16.181 27.7512 17.2175L25.3695 20.8034C25.3158 20.8842 25.2863 20.9787 25.2845 21.0757C25.2828 21.1728 25.3088 21.2683 25.3597 21.3509C25.4105 21.4336 25.4839 21.5 25.5713 21.5423C25.6586 21.5845 25.7563 21.6008 25.8527 21.5893L31.4138 20.918C33.2526 21.9798 35.4221 22.5406 37.7002 22.5406C39.8158 22.555 41.9011 22.0374 43.7644 21.0355V33.0534ZM37.7002 21.5246C35.5436 21.5246 33.4977 20.9827 31.7844 19.9567C31.7053 19.9101 31.6152 19.8853 31.5234 19.885C31.5032 19.884 31.4829 19.884 31.4626 19.885L26.8199 20.4438L28.7622 17.5213C28.8141 17.4426 28.8432 17.351 28.8462 17.2567C28.8492 17.1625 28.826 17.0692 28.7792 16.9874C28.2223 16.0353 27.9274 14.9527 27.9245 13.8497C27.9245 9.61928 32.3073 6.17977 37.7002 6.17977C43.093 6.17977 47.4768 9.62127 47.4768 13.8497C47.4768 18.0781 43.091 21.5246 37.7002 21.5246Z" fill="white"/>
<path d="M32.3969 12.1523C32.2622 12.1523 32.133 12.2059 32.0377 12.3011C31.9424 12.3964 31.8889 12.5256 31.8889 12.6604V15.041C31.8889 15.1757 31.9424 15.305 32.0377 15.4002C32.133 15.4955 32.2622 15.549 32.3969 15.549C32.5317 15.549 32.6609 15.4955 32.7561 15.4002C32.8514 15.305 32.9049 15.1757 32.9049 15.041V12.6643C32.9055 12.5973 32.8927 12.5308 32.8674 12.4687C32.8421 12.4066 32.8048 12.3501 32.7576 12.3025C32.7103 12.2549 32.6541 12.2172 32.5923 12.1914C32.5304 12.1656 32.464 12.1523 32.3969 12.1523Z" fill="white"/>
<path d="M37.7001 12.1523C37.5654 12.1523 37.4362 12.2059 37.3409 12.3011C37.2457 12.3964 37.1921 12.5256 37.1921 12.6604V15.041C37.1921 15.1757 37.2457 15.305 37.3409 15.4002C37.4362 15.4955 37.5654 15.549 37.7001 15.549C37.8349 15.549 37.9641 15.4955 38.0594 15.4002C38.1546 15.305 38.2082 15.1757 38.2082 15.041V12.6643C38.2087 12.5973 38.1959 12.5308 38.1706 12.4687C38.1453 12.4066 38.108 12.3501 38.0608 12.3025C38.0136 12.2549 37.9574 12.2172 37.8955 12.1914C37.8336 12.1656 37.7672 12.1523 37.7001 12.1523Z" fill="white"/>
<path d="M43.0043 12.1523C42.9376 12.1523 42.8716 12.1655 42.8099 12.191C42.7483 12.2165 42.6923 12.254 42.6451 12.3011C42.598 12.3483 42.5605 12.4043 42.535 12.4659C42.5095 12.5276 42.4963 12.5936 42.4963 12.6604V15.041C42.4963 15.1757 42.5499 15.305 42.6451 15.4002C42.7404 15.4955 42.8696 15.549 43.0043 15.549C43.1391 15.549 43.2683 15.4955 43.3636 15.4002C43.4588 15.305 43.5124 15.1757 43.5124 15.041V12.6643C43.5129 12.5973 43.5001 12.5308 43.4748 12.4687C43.4495 12.4066 43.4122 12.3501 43.365 12.3025C43.3178 12.2549 43.2616 12.2172 43.1997 12.1914C43.1378 12.1656 43.0714 12.1523 43.0043 12.1523Z" fill="white"/>
</svg>
