<svg width="35" height="35" viewBox="0 0 35 35" fill="none" xmlns="http://www.w3.org/2000/svg">
<path d="M33.6538 17.5C33.6538 8.59288 26.4078 1.34613 17.5 1.34613C8.59225 1.34613 1.34615 8.59288 1.34615 17.5C1.34615 22.0548 3.24855 26.1674 6.29144 29.1069C6.36268 29.1996 6.44706 29.2748 6.54582 29.3381C9.42825 32.0074 13.2708 33.6538 17.5 33.6538C21.7292 33.6538 25.5717 32.0074 28.4542 29.3381C28.5529 29.2748 28.6373 29.1996 28.7086 29.1069C31.7514 26.1674 33.6538 22.0548 33.6538 17.5ZM17.5 3.36536C25.2943 3.36536 31.6346 9.70635 31.6346 17.5C31.6346 20.8047 30.486 23.8415 28.5785 26.2511C27.7028 23.4271 25.2028 21.2164 21.8098 20.1991C23.6589 18.8609 24.8684 16.6929 24.8684 14.243C24.8684 10.1855 21.5634 6.88455 17.5 6.88455C13.4366 6.88455 10.1316 10.1855 10.1316 14.243C10.1316 16.6929 11.3411 18.8609 13.1902 20.1991C9.79716 21.2164 7.2972 23.4271 6.42151 26.2511C4.51402 23.8415 3.36538 20.8047 3.36538 17.5C3.36538 9.70635 9.70572 3.36536 17.5 3.36536ZM12.1509 14.243C12.1509 11.299 14.55 8.90379 17.5 8.90379C20.45 8.90379 22.8491 11.299 22.8491 14.243C22.8491 17.1871 20.45 19.5823 17.5 19.5823C14.55 19.5823 12.1509 17.1871 12.1509 14.243ZM8.11833 28.043C8.42184 24.3412 12.3474 21.6015 17.5 21.6015C22.6526 21.6015 26.5782 24.3412 26.8817 28.043C24.383 30.269 21.1019 31.6346 17.5 31.6346C13.8981 31.6346 10.617 30.269 8.11833 28.043Z" fill="white"/>
</svg>
