<svg width="40" height="40" viewBox="0 0 40 40" fill="none" xmlns="http://www.w3.org/2000/svg">
<path d="M30.875 13.8333C30.7361 13.8333 30.5906 13.7917 30.4383 13.7083C30.285 13.625 30.1806 13.5 30.125 13.3333L29.0417 11L26.7083 9.91667C26.5417 9.86111 26.4167 9.75667 26.3333 9.60333C26.25 9.45111 26.2083 9.30556 26.2083 9.16667C26.2083 9.02778 26.25 8.88167 26.3333 8.72833C26.4167 8.57611 26.5417 8.47222 26.7083 8.41667L29.0417 7.33333L30.125 5C30.1806 4.83333 30.285 4.70833 30.4383 4.625C30.5906 4.54167 30.7361 4.5 30.875 4.5C31.0139 4.5 31.16 4.54167 31.3133 4.625C31.4656 4.70833 31.5694 4.83333 31.625 5L32.7083 7.33333L35.0417 8.41667C35.2083 8.47222 35.3333 8.57611 35.4167 8.72833C35.5 8.88167 35.5417 9.02778 35.5417 9.16667C35.5417 9.30556 35.5 9.45111 35.4167 9.60333C35.3333 9.75667 35.2083 9.86111 35.0417 9.91667L32.7083 11L31.625 13.3333C31.5694 13.5 31.4656 13.625 31.3133 13.7083C31.16 13.7917 31.0139 13.8333 30.875 13.8333ZM34.2083 25.5417C34.0694 25.5417 33.9306 25.5 33.7917 25.4167C33.6528 25.3333 33.5417 25.2222 33.4583 25.0833L32.875 23.8333L31.625 23.25C31.5417 23.1944 31.3889 22.9444 31.1667 22.5C31.1667 22.3611 31.2083 22.2222 31.2917 22.0833C31.375 21.9444 31.4861 21.8333 31.625 21.75L32.875 21.1667L33.4583 19.9167C33.5139 19.8333 33.7639 19.6806 34.2083 19.4583C34.3472 19.4583 34.4861 19.5 34.625 19.5833C34.7639 19.6667 34.875 19.7778 34.9583 19.9167L35.5417 21.1667L36.7917 21.75C36.875 21.8056 37.0278 22.0556 37.25 22.5C37.25 22.6389 37.2083 22.7778 37.125 22.9167C37.0417 23.0556 36.9306 23.1667 36.7917 23.25L35.5417 23.8333L34.9583 25.0833C34.9028 25.1667 34.6528 25.3194 34.2083 25.5417ZM14 36.6667C13.5833 36.6667 13.2222 36.5278 12.9167 36.25C12.6111 35.9722 12.4306 35.625 12.375 35.2083L12.0417 32.75C11.8194 32.6667 11.6044 32.5556 11.3967 32.4167C11.1878 32.2778 11.0139 32.1389 10.875 32L8.58334 33C8.19445 33.1944 7.79889 33.2222 7.39667 33.0833C6.99334 32.9444 6.68056 32.6806 6.45834 32.2917L3.79167 27.625C3.56945 27.2639 3.50723 26.875 3.605 26.4583C3.70167 26.0417 3.91667 25.7083 4.25 25.4583L6.20834 24V22.6667L4.25 21.2083C3.91667 20.9583 3.70167 20.625 3.605 20.2083C3.50723 19.7917 3.56945 19.4028 3.79167 19.0417L6.45834 14.375C6.68056 13.9861 6.99334 13.7222 7.39667 13.5833C7.79889 13.4444 8.19445 13.4722 8.58334 13.6667L10.875 14.6667C11.0139 14.5278 11.1878 14.3889 11.3967 14.25C11.6044 14.1111 11.8194 14 12.0417 13.9167L12.375 11.4583C12.4306 11.0417 12.6111 10.6944 12.9167 10.4167C13.2222 10.1389 13.5833 10 14 10H19.4167C19.8333 10 20.1944 10.1389 20.5 10.4167C20.8056 10.6944 20.9861 11.0417 21.0417 11.4583L21.375 13.9167C21.5972 14 21.8128 14.1111 22.0217 14.25C22.2294 14.3889 22.4028 14.5278 22.5417 14.6667L24.8333 13.6667C25.2222 13.4722 25.6183 13.4444 26.0217 13.5833C26.4239 13.7222 26.7361 13.9861 26.9583 14.375L29.625 19.0417C29.8472 19.4028 29.91 19.7917 29.8133 20.2083C29.7156 20.625 29.5 20.9583 29.1667 21.2083L27.2083 22.6667V24L29.1667 25.4583C29.5 25.7083 29.7156 26.0417 29.8133 26.4583C29.91 26.875 29.8472 27.2639 29.625 27.625L26.9583 32.2917C26.7361 32.6806 26.4239 32.9444 26.0217 33.0833C25.6183 33.2222 25.2222 33.1944 24.8333 33L22.5417 32C22.4028 32.1389 22.2294 32.2778 22.0217 32.4167C21.8128 32.5556 21.5972 32.6667 21.375 32.75L21.0417 35.2083C20.9861 35.625 20.8056 35.9722 20.5 36.25C20.1944 36.5278 19.8333 36.6667 19.4167 36.6667H14ZM16.7083 28.3333C18.0972 28.3333 19.2778 27.8472 20.25 26.875C21.2222 25.9028 21.7083 24.7222 21.7083 23.3333C21.7083 21.9444 21.2222 20.7639 20.25 19.7917C19.2778 18.8194 18.0972 18.3333 16.7083 18.3333C15.3194 18.3333 14.1389 18.8194 13.1667 19.7917C12.1944 20.7639 11.7083 21.9444 11.7083 23.3333C11.7083 24.7222 12.1944 25.9028 13.1667 26.875C14.1389 27.8472 15.3194 28.3333 16.7083 28.3333ZM16.7083 25C16.2361 25 15.84 24.84 15.52 24.52C15.2011 24.2011 15.0417 23.8056 15.0417 23.3333C15.0417 22.8611 15.2011 22.465 15.52 22.145C15.84 21.8261 16.2361 21.6667 16.7083 21.6667C17.1806 21.6667 17.5767 21.8261 17.8967 22.145C18.2156 22.465 18.375 22.8611 18.375 23.3333C18.375 23.8056 18.2156 24.2011 17.8967 24.52C17.5767 24.84 17.1806 25 16.7083 25ZM15.4583 33.3333H17.9583L18.2917 30.3333C19.0972 30.1111 19.785 29.8267 20.355 29.48C20.9239 29.1322 21.4861 28.6667 22.0417 28.0833L24.7917 29.3333L25.9583 27.25L23.5417 25.4167C23.7639 24.7778 23.875 24.0833 23.875 23.3333C23.875 22.5833 23.7639 21.8889 23.5417 21.25L25.9583 19.4167L24.7917 17.3333L22.0417 18.5833C21.4861 18 20.9239 17.5344 20.355 17.1867C19.785 16.84 19.0972 16.5556 18.2917 16.3333L17.9583 13.3333H15.4583L15.125 16.3333C14.3194 16.5556 13.6322 16.84 13.0633 17.1867C12.4933 17.5344 11.9306 18 11.375 18.5833L8.625 17.3333L7.45834 19.4167L9.875 21.25C9.65278 21.8889 9.535 22.5833 9.52167 23.3333C9.50722 24.0833 9.625 24.7778 9.875 25.4167L7.45834 27.25L8.625 29.3333L11.375 28.0833C11.9306 28.6667 12.4933 29.1322 13.0633 29.48C13.6322 29.8267 14.3194 30.1111 15.125 30.3333L15.4583 33.3333Z" fill="#27E4B7"/>
</svg>
