<svg width="311" height="259" viewBox="0 0 311 259" fill="none" xmlns="http://www.w3.org/2000/svg">
<circle cx="150" cy="84" r="84" fill="#6327E4"/>
<path d="M144.829 90.4466C144.32 88.9586 144.067 87.559 144.072 86.2477C144.076 84.9364 144.352 83.6079 144.899 82.2621C145.491 80.9008 146.368 79.4167 147.531 77.8098C148.544 76.3547 149.325 75.105 149.874 74.0606C150.468 73.0008 150.815 72.0259 150.913 71.1358C151.057 70.2304 150.966 69.3042 150.642 68.3573C150.148 66.9144 149.237 66.0174 147.907 65.6664C146.608 65.2549 145.011 65.3732 143.117 66.0215C141.224 66.6698 139.453 67.6035 137.805 68.8225C136.157 70.0415 134.533 71.4789 132.934 73.1346L126.871 67.1246C128.664 65.1508 130.714 63.3407 133.022 61.6944C135.33 60.048 138.017 58.7001 141.083 57.6505C145.773 56.0452 149.788 55.93 153.13 57.3047C156.517 58.664 158.805 61.0796 159.994 64.5516C160.626 66.4004 160.881 68.1014 160.758 69.6548C160.635 71.2082 160.188 72.7717 159.417 74.3454C158.63 75.874 157.582 77.5931 156.271 79.5027C155.287 80.8972 154.551 82.0562 154.061 82.9795C153.571 83.9028 153.298 84.7264 153.244 85.4503C153.235 86.1588 153.392 86.9864 153.716 87.9333L154.388 89.8948L145.663 92.8815L144.829 90.4466ZM148.447 104.547C147.737 102.473 147.807 100.837 148.656 99.6397C149.49 98.3971 150.719 97.4979 152.342 96.9423C153.92 96.402 155.419 96.3673 156.84 96.8382C158.245 97.2639 159.303 98.5139 160.013 100.588C160.692 102.572 160.622 104.208 159.804 105.496C158.97 106.738 157.763 107.63 156.185 108.17C154.562 108.726 153.04 108.768 151.62 108.297C150.184 107.781 149.126 106.531 148.447 104.547Z" fill="white"/>
<circle cx="248" cy="188" r="44.5483" transform="rotate(44.7215 248 188)" fill="#FFB140"/>
<circle cx="60.9326" cy="197.933" r="44.5483" transform="rotate(-30.2785 60.9326 197.933)" fill="#FB2558"/>
<path d="M243.646 188.5C244.009 187.749 244.437 187.127 244.928 186.635C245.419 186.142 246.018 185.745 246.727 185.441C247.458 185.149 248.342 184.918 249.38 184.746C250.305 184.576 251.065 184.396 251.662 184.208C252.281 184.03 252.776 183.792 253.145 183.493C253.537 183.206 253.848 182.823 254.08 182.345C254.432 181.617 254.423 180.939 254.053 180.311C253.717 179.671 253.071 179.119 252.116 178.657C251.16 178.195 250.145 177.885 249.069 177.73C247.993 177.574 246.844 177.51 245.624 177.537L245.582 173.01C246.994 172.935 248.443 173.018 249.927 173.259C251.411 173.5 252.926 173.995 254.473 174.743C256.839 175.888 258.396 177.344 259.142 179.109C259.911 180.885 259.872 182.649 259.024 184.401C258.572 185.334 258.034 186.07 257.407 186.609C256.781 187.149 256.029 187.571 255.152 187.876C254.285 188.159 253.248 188.415 252.041 188.645C251.15 188.804 250.44 188.966 249.911 189.131C249.382 189.296 248.972 189.505 248.681 189.757C248.414 190.021 248.164 190.391 247.933 190.869L247.454 191.859L243.051 189.728L243.646 188.5ZM239.747 195.163C240.254 194.117 240.89 193.526 241.657 193.392C242.435 193.235 243.234 193.355 244.053 193.751C244.849 194.136 245.427 194.683 245.787 195.39C246.157 196.075 246.089 196.941 245.583 197.987C245.098 198.988 244.462 199.579 243.673 199.759C242.895 199.916 242.108 199.801 241.311 199.416C240.492 199.02 239.903 198.468 239.543 197.76C239.195 197.03 239.263 196.164 239.747 195.163Z" fill="white"/>
<path d="M60.2882 202.268C59.6571 201.722 59.1672 201.149 58.8186 200.547C58.4701 199.945 58.2411 199.263 58.1316 198.501C58.0387 197.719 58.0437 196.805 58.1464 195.758C58.2214 194.82 58.245 194.039 58.2173 193.414C58.2061 192.77 58.104 192.23 57.911 191.797C57.7346 191.344 57.4456 190.944 57.0439 190.597C56.4319 190.068 55.7745 189.901 55.0719 190.095C54.3667 190.254 53.6671 190.736 52.9731 191.539C52.2791 192.342 51.7177 193.243 51.2889 194.242C50.86 195.241 50.5008 196.334 50.211 197.52L45.8276 196.388C46.1208 195.005 46.5758 193.628 47.1925 192.256C47.8092 190.885 48.6794 189.55 49.803 188.249C51.5215 186.26 53.3299 185.133 55.228 184.869C57.1427 184.586 58.8365 185.081 60.3092 186.353C61.0934 187.03 61.6649 187.741 62.0239 188.486C62.3829 189.23 62.5962 190.066 62.6639 190.993C62.7124 191.903 62.6918 192.971 62.6021 194.196C62.5245 195.098 62.497 195.825 62.5195 196.379C62.542 196.933 62.6376 197.383 62.8062 197.729C62.9914 198.056 63.2848 198.393 63.6864 198.74L64.5184 199.459L61.3211 203.16L60.2882 202.268ZM65.7157 207.758C64.8358 206.998 64.4303 206.23 64.4992 205.455C64.5489 204.663 64.8711 203.922 65.466 203.234C66.0443 202.564 66.7218 202.147 67.4983 201.983C68.2556 201.802 69.0742 202.092 69.954 202.852C70.7956 203.579 71.2011 204.347 71.1705 205.156C71.1208 205.948 70.8068 206.679 70.2285 207.348C69.6336 208.037 68.9479 208.463 68.1714 208.627C67.3758 208.775 66.5572 208.485 65.7157 207.758Z" fill="white"/>
</svg>
