<svg width="22" height="22" viewBox="0 0 22 22" fill="none" xmlns="http://www.w3.org/2000/svg">
<path d="M11.0476 0.214844C5.09064 0.214844 0.262497 5.04303 0.262497 10.9999C0.262497 16.9568 5.09064 21.7852 11.0476 21.7852C17.0045 21.7852 21.8326 16.9568 21.8326 10.9999C21.8326 5.04303 17.0045 0.214844 11.0476 0.214844ZM11.0476 1.11362C16.4989 1.11362 20.9339 5.5486 20.9339 11C20.9339 13.3983 20.0747 15.5995 18.6484 17.3132C17.6627 16.9015 15.336 16.0941 13.8957 15.6688C13.7728 15.6302 13.7535 15.624 13.7535 15.1128C13.7535 14.6906 13.9272 14.2654 14.0967 13.9055C14.2801 13.5145 14.4977 12.8572 14.5759 12.2673C14.7944 12.0136 15.092 11.5133 15.2833 10.5598C15.4509 9.71936 15.3728 9.41351 15.2614 9.12648C15.25 9.09618 15.2377 9.06636 15.2289 9.0365C15.1867 8.83945 15.2447 7.81563 15.3887 7.02131C15.4878 6.47625 15.3632 5.31725 14.6128 4.35845C14.1388 3.75237 13.2321 3.00854 11.576 2.90499L10.6676 2.90585C9.03942 3.00859 8.13188 3.75237 7.65793 4.35845C6.90753 5.3173 6.78292 6.47629 6.88209 7.02092C7.0269 7.81563 7.08396 8.83945 7.04271 9.03255C7.03394 9.06632 7.02165 9.09618 7.00936 9.12648C6.89876 9.41351 6.81979 9.71936 6.98831 10.5598C7.17875 11.5133 7.47631 12.0137 7.6957 12.2673C7.77296 12.8571 7.99064 13.5145 8.17493 13.9055C8.30921 14.1917 8.37242 14.5809 8.37242 15.1312C8.37242 15.6425 8.35308 15.6487 8.2381 15.6851C6.74867 16.1248 4.37804 16.9814 3.49418 17.3685C2.03986 15.6469 1.16127 13.4246 1.16127 11C1.16123 5.54855 5.59621 1.11362 11.0476 1.11362ZM4.14537 18.069C5.15737 17.6559 7.17518 16.9362 8.50047 16.5447C9.27111 16.3016 9.27111 15.6526 9.27111 15.1312C9.27111 14.699 9.24129 14.0617 8.9885 13.5229C8.8147 13.1538 8.61631 12.521 8.57248 12.0255C8.56281 11.9097 8.50842 11.8026 8.42063 11.7263C8.29336 11.6148 8.03443 11.2066 7.86943 10.3834C7.73867 9.73169 7.79397 9.58908 7.84751 9.45128C7.87033 9.39245 7.89229 9.33453 7.90986 9.26913C8.0178 8.87464 7.89753 7.5787 7.76677 6.85987C7.70975 6.54741 7.78168 5.65963 8.36623 4.9118C8.89019 4.2417 9.68361 3.86822 10.6956 3.80372L11.5479 3.80282C12.5871 3.86822 13.3805 4.2417 13.9053 4.9118C14.4899 5.65963 14.561 6.54741 14.5039 6.86026C14.374 7.5787 14.2529 8.87459 14.3608 9.26866C14.3793 9.33449 14.4003 9.39241 14.4231 9.45123C14.4767 9.58899 14.532 9.73165 14.4021 10.3834C14.2371 11.2066 13.9773 11.6148 13.85 11.7262C13.7631 11.8026 13.7088 11.9096 13.6982 12.0255C13.6552 12.5209 13.4568 13.1538 13.2831 13.5228C13.0838 13.9463 12.8547 14.5102 12.8547 15.1128C12.8547 15.6341 12.8547 16.2832 13.6333 16.5285C14.9015 16.9033 16.929 17.5997 17.9998 18.0208C16.2119 19.7911 13.7553 20.8864 11.0476 20.8864C8.36447 20.8864 5.92887 19.8104 4.14537 18.069Z" fill="#2568FB"/>
</svg>
