<svg width="37" height="46" viewBox="0 0 37 46" fill="none" xmlns="http://www.w3.org/2000/svg">
<path d="M33.4762 27.2922C33.4789 23.3154 31.9296 19.4982 29.165 16.67C29.1419 16.6391 29.1169 16.6097 29.0901 16.582C29.0624 16.5549 29.0329 16.5297 29.002 16.5063C26.206 13.7106 22.432 12.1435 18.5 12.1456C14.5676 12.1432 10.7931 13.7103 7.99685 16.5063C7.93512 16.5527 7.88024 16.6079 7.83388 16.67C5.06969 19.4984 3.52084 23.3156 3.52382 27.2922C3.52131 31.2686 5.07056 35.0854 7.83498 37.9133C7.8581 37.9442 7.88311 37.9736 7.90986 38.0013C7.93764 38.0287 7.96706 38.0544 7.99795 38.0781C10.7943 40.8731 14.5682 42.4397 18.5 42.4377C22.4322 42.44 26.2065 40.8734 29.0031 38.0781C29.0646 38.0309 29.1194 37.9754 29.1661 37.9133C31.9301 35.0852 33.479 31.2685 33.4762 27.2922ZM30.2552 28.1831H31.6867C31.4963 31.1077 30.3563 33.887 28.4437 36.0893L27.4373 35.0726C27.2707 34.9126 27.0489 34.8247 26.8192 34.8277C26.5895 34.8307 26.37 34.9243 26.2076 35.0886C26.0451 35.2528 25.9525 35.4748 25.9496 35.7071C25.9467 35.9394 26.0336 36.1637 26.1918 36.3321L27.1972 37.3488C25.0197 39.2836 22.2712 40.4368 19.3787 40.6293V39.1817C19.3787 38.9454 19.2859 38.7188 19.1207 38.5518C18.9555 38.3847 18.7314 38.2908 18.4978 38.2908C18.2642 38.2908 18.0401 38.3847 17.8749 38.5518C17.7097 38.7188 17.6168 38.9454 17.6168 39.1817V40.6293C14.7247 40.4358 11.9764 39.2827 9.7984 37.3488L10.8038 36.3321C10.8856 36.2494 10.9506 36.1512 10.9949 36.0431C11.0392 35.935 11.0621 35.8192 11.0621 35.7022C11.0622 35.5852 11.0394 35.4693 10.9952 35.3612C10.951 35.2531 10.8861 35.1549 10.8043 35.0721C10.7226 34.9893 10.6255 34.9236 10.5186 34.8788C10.4117 34.834 10.2972 34.8109 10.1815 34.8109C10.0658 34.8108 9.95117 34.8338 9.84426 34.8785C9.73734 34.9233 9.64019 34.9888 9.55834 35.0715L8.55185 36.0893C6.63931 33.887 5.49931 31.1077 5.30885 28.1831H6.74039C6.97404 28.1831 7.19811 28.0892 7.36332 27.9221C7.52853 27.7551 7.62135 27.5285 7.62135 27.2922C7.62135 27.0559 7.52853 26.8294 7.36332 26.6623C7.19811 26.4952 6.97404 26.4014 6.74039 26.4014H5.30885C5.49955 23.4768 6.63952 20.6976 8.55185 18.4951L9.55834 19.5129C9.72489 19.6729 9.94667 19.7608 10.1764 19.7578C10.4061 19.7548 10.6256 19.6612 10.788 19.497C10.9505 19.3327 11.0431 19.1108 11.046 18.8785C11.0489 18.6462 10.962 18.4219 10.8038 18.2535L9.8006 17.2379C11.9785 15.3039 14.7269 14.1511 17.619 13.9585V15.4061C17.619 15.6424 17.7119 15.8689 17.8771 16.036C18.0423 16.2031 18.2664 16.2969 18.5 16.2969C18.7336 16.2969 18.9577 16.2031 19.1229 16.036C19.2881 15.8689 19.381 15.6424 19.381 15.4061V13.9585C22.2731 14.1511 25.0215 15.3039 27.1994 17.2379L26.194 18.2557C26.0358 18.4241 25.9489 18.6484 25.9518 18.8807C25.9547 19.113 26.0473 19.3349 26.2098 19.4992C26.3722 19.6635 26.5917 19.7571 26.8214 19.76C27.0511 19.763 27.2729 19.6751 27.4395 19.5151L28.4459 18.4973C30.3583 20.6998 31.4982 23.479 31.6889 26.4036H30.2574C30.0238 26.4036 29.7997 26.4974 29.6345 26.6645C29.4693 26.8316 29.3764 27.0582 29.3764 27.2944C29.3764 27.5307 29.4693 27.7573 29.6345 27.9244C29.7997 28.0914 30.0238 28.1853 30.2574 28.1853L30.2552 28.1831ZM33.1756 15.915L36.0012 13.0587C36.0831 12.976 36.1481 12.8777 36.1924 12.7696C36.2368 12.6614 36.2596 12.5455 36.2596 12.4284C36.2596 12.3114 36.2368 12.1954 36.1924 12.0873C36.1481 11.9791 36.0831 11.8809 36.0012 11.7982L33.8209 9.59331C33.739 9.51048 33.6419 9.44477 33.5349 9.39994C33.428 9.35511 33.3134 9.33204 33.1976 9.33204C33.0818 9.33204 32.9672 9.35511 32.8602 9.39994C32.7533 9.44477 32.6561 9.51048 32.5743 9.59331L29.7498 12.4496C27.181 10.451 24.136 9.1738 20.9226 8.747V5.60343H23.1988C23.4324 5.60343 23.6565 5.50957 23.8217 5.3425C23.9869 5.17544 24.0797 4.94885 24.0797 4.71258V0.890847C24.0797 0.65458 23.9869 0.427989 23.8217 0.260923C23.6565 0.0938566 23.4324 0 23.1988 0H13.8012C13.5676 0 13.3435 0.0938566 13.1783 0.260923C13.0131 0.427989 12.9203 0.65458 12.9203 0.890847V4.71258C12.9203 4.94885 13.0131 5.17544 13.1783 5.3425C13.3435 5.50957 13.5676 5.60343 13.8012 5.60343H16.0774V8.747C12.8632 9.17438 9.81771 10.4528 7.24914 12.4529L4.42459 9.59331C4.34277 9.51048 4.24562 9.44477 4.13867 9.39994C4.03172 9.35511 3.91709 9.33204 3.80132 9.33204C3.68555 9.33204 3.57091 9.35511 3.46397 9.39994C3.35702 9.44477 3.25986 9.51048 3.17805 9.59331L0.997689 11.7982C0.915781 11.8809 0.850804 11.9791 0.80647 12.0873C0.762137 12.1954 0.739318 12.3114 0.739318 12.4284C0.739318 12.5455 0.762137 12.6614 0.80647 12.7696C0.850804 12.8777 0.915781 12.976 0.997689 13.0587L3.82334 15.915C1.34003 19.1756 -0.00451599 23.1766 1.13961e-05 27.2922C1.13961e-05 37.6082 8.29968 46 18.5 46C28.7003 46 37 37.6071 37 27.2922C37.0045 23.1766 35.66 19.1756 33.1767 15.915H33.1756ZM33.1976 11.483L34.1325 12.4284L32.0336 14.5498C31.7341 14.2246 31.4228 13.9098 31.0998 13.6055L33.1976 11.483ZM14.6822 1.78169H22.3178V3.82173H14.6822V1.78169ZM17.8393 5.60343H19.1607V8.59556C18.9405 8.58777 18.7202 8.5822 18.5 8.5822C18.2798 8.5822 18.0595 8.5822 17.8393 8.59556V5.60343ZM2.8631 12.4284L3.79801 11.483L5.89688 13.6055C5.57387 13.9098 5.26223 14.2246 4.96197 14.5498L2.8631 12.4284ZM18.5 44.2194C9.26983 44.2194 1.76191 36.6261 1.76191 27.2933C1.76191 17.9606 9.27093 10.3672 18.5 10.3672C27.7291 10.3672 35.2381 17.9617 35.2381 27.2933C35.2381 36.6249 27.7302 44.2194 18.5 44.2194ZM22.4456 30.016C22.6107 30.1831 22.7034 30.4098 22.7033 30.6461C22.7032 30.8824 22.6103 31.109 22.445 31.276C22.3632 31.3587 22.266 31.4242 22.1591 31.469C22.0522 31.5137 21.9376 31.5367 21.8219 31.5366C21.5882 31.5365 21.3642 31.4426 21.199 31.2754L17.8767 27.9225C17.8569 27.9024 17.8371 27.8802 17.8184 27.8579L17.7941 27.8245L17.7677 27.7877C17.7589 27.7744 17.7512 27.761 17.7435 27.7477C17.7362 27.7365 17.7296 27.725 17.7237 27.7131C17.716 27.6996 17.7093 27.6854 17.7038 27.6708C17.6972 27.6586 17.6917 27.6463 17.6862 27.6341C17.6807 27.6218 17.6763 27.6062 17.6708 27.5929C17.6653 27.5795 17.6609 27.5661 17.6576 27.5517C17.6543 27.5372 17.6499 27.5238 17.6466 27.5105C17.6433 27.4971 17.6389 27.4815 17.6367 27.467C17.6345 27.4526 17.6367 27.4336 17.629 27.4169C17.6213 27.4002 17.629 27.3935 17.6235 27.3813C17.6218 27.352 17.6218 27.3226 17.6235 27.2933V18.6376C17.6235 18.4014 17.7163 18.1748 17.8815 18.0077C18.0467 17.8406 18.2708 17.7468 18.5044 17.7468C18.738 17.7468 18.9621 17.8406 19.1273 18.0077C19.2925 18.1748 19.3854 18.4014 19.3854 18.6376V26.9225L22.4456 30.016Z" fill="#FFB140"/>
</svg>
