<svg width="30" height="30" viewBox="0 0 30 30" fill="none" xmlns="http://www.w3.org/2000/svg">
<path d="M15 0.833374C7.17998 0.833374 0.833313 7.18004 0.833313 15C0.833313 22.82 7.17998 29.1667 15 29.1667C22.82 29.1667 29.1666 22.82 29.1666 15C29.1666 7.18004 22.82 0.833374 15 0.833374ZM21.5733 10.4667C21.3608 12.705 20.44 18.145 19.9725 20.6525C19.7741 21.715 19.3775 22.0692 19.0091 22.1117C18.1875 22.1825 17.5641 21.5734 16.7708 21.0492C15.5241 20.2275 14.8158 19.7175 13.6116 18.9242C12.2091 18.0034 13.1158 17.4934 13.9233 16.6717C14.1358 16.4592 17.7625 13.1584 17.8333 12.8609C17.8432 12.8158 17.8418 12.769 17.8295 12.7246C17.8172 12.6802 17.7941 12.6394 17.7625 12.6059C17.6775 12.535 17.5641 12.5634 17.465 12.5775C17.3375 12.6059 15.3541 13.9234 11.4866 16.53C10.92 16.9125 10.41 17.1109 9.95665 17.0967C9.44665 17.0825 8.48331 16.8134 7.76081 16.5725C6.86831 16.2892 6.17415 16.1334 6.23081 15.6375C6.25915 15.3825 6.61331 15.1275 7.27915 14.8584C11.4158 13.0592 14.1641 11.8692 15.5383 11.3025C19.4766 9.65921 20.2841 9.37587 20.8225 9.37587C20.9358 9.37587 21.205 9.40421 21.375 9.54587C21.5166 9.65921 21.5591 9.81504 21.5733 9.92837C21.5591 10.0134 21.5875 10.2684 21.5733 10.4667Z" fill="#3C85F1"/>
</svg>
