<svg width="25" height="25" viewBox="0 0 25 25" fill="none" xmlns="http://www.w3.org/2000/svg">
<path fill-rule="evenodd" clip-rule="evenodd" d="M9.00664 6.34941C8.76426 5.76895 8.58047 5.74687 8.21328 5.73203C8.08828 5.7248 7.94902 5.71758 7.79453 5.71758C7.3168 5.71758 6.81738 5.85723 6.51602 6.16582C6.14883 6.54063 5.2377 7.41504 5.2377 9.20801C5.2377 11.0012 6.54531 12.7354 6.72168 12.9781C6.90547 13.2203 9.27109 16.9535 12.9443 18.475C15.8168 19.6654 16.6691 19.5551 17.3229 19.4156C18.2779 19.21 19.4754 18.5041 19.7768 17.652C20.0779 16.7994 20.0779 16.0719 19.9896 15.9176C19.9016 15.7633 19.659 15.6754 19.2918 15.4914C18.9246 15.3076 17.1393 14.4258 16.8014 14.3082C16.4707 14.1834 16.1549 14.2275 15.9053 14.5803C15.5525 15.0727 15.2074 15.5725 14.9281 15.8736C14.7078 16.1088 14.3477 16.1383 14.0465 16.0133C13.6424 15.8445 12.5111 15.4473 11.1152 14.2055C10.0352 13.243 9.30059 12.0453 9.0877 11.6852C8.87461 11.3178 9.06562 11.1045 9.23457 10.9062C9.41836 10.6783 9.59453 10.5168 9.77812 10.3035C9.96191 10.0904 10.0646 9.98027 10.1822 9.73027C10.3072 9.48789 10.2189 9.23789 10.1309 9.0541C10.0426 8.86992 9.30801 7.07676 9.00664 6.34941ZM12.4963 0C5.60527 0 0 5.60684 0 12.4998C0 15.2334 0.881641 17.7688 2.38027 19.8264L0.822656 24.4707L5.62734 22.9352C7.60352 24.2432 9.96172 25 12.5037 25C19.3947 25 25 19.3928 25 12.5002C25 5.60723 19.3947 0.000390625 12.5037 0.000390625H12.4965L12.4963 0Z" fill="#67C15E"/>
</svg>
