<svg width="29" height="21" viewBox="0 0 29 21" fill="none" xmlns="http://www.w3.org/2000/svg">
<path fill-rule="evenodd" clip-rule="evenodd" d="M28.71 4.66013C28.71 4.66013 28.4263 2.64758 27.5573 1.76149C26.4543 0.597865 25.2182 0.592428 24.6518 0.524912C20.5936 0.229248 14.5063 0.229248 14.5063 0.229248H14.4937C14.4937 0.229248 8.40637 0.229248 4.34819 0.524912C3.78087 0.592428 2.54566 0.597865 1.44184 1.76149C0.57275 2.6478 0.29 4.66013 0.29 4.66013C0.29 4.66013 0 7.02408 0 9.3869V11.6029C0 13.9666 0.29 16.3297 0.29 16.3297C0.29 16.3297 0.57275 18.3422 1.44184 19.2283C2.54566 20.392 3.99475 20.3555 4.64 20.4769C6.96 20.7014 14.5 20.7708 14.5 20.7708C14.5 20.7708 20.5936 20.7617 24.6518 20.466C25.2182 20.3976 26.4543 20.3922 27.5573 19.2286C28.4263 18.3422 28.71 16.3299 28.71 16.3299C28.71 16.3299 29 13.9669 29 11.6029V9.3869C29 7.02408 28.71 4.66013 28.71 4.66013ZM11.5057 14.2881L11.5048 6.08226L19.3403 10.1994L11.5057 14.2881Z" fill="#CE1312"/>
</svg>
