<svg width="38" height="39" viewBox="0 0 38 39" fill="none" xmlns="http://www.w3.org/2000/svg">
<path d="M5.80381 19.5949C5.80381 19.5949 5.77087 18.4417 6.00151 17.7168L2.14644 14.7184C2.14644 14.7184 1.81695 14.3889 2.14644 13.8288L5.63907 7.83201C5.63907 7.83201 6.06741 7.17304 7.12178 7.63433L10.7792 9.28179C10.7792 9.28179 12.3607 7.93087 14.107 7.46958L14.7331 2.82373C14.7331 2.82373 14.7331 2 15.9522 2H18.9835" stroke="#27E4B7" stroke-width="3" stroke-miterlimit="10"/>
<path d="M12.5914 19.5949C12.5914 19.5949 12.5584 13.1698 18.9835 13.1039" stroke="#27E4B7" stroke-width="3" stroke-miterlimit="10"/>
<path d="M32.1962 19.5949C32.1962 19.5949 32.2291 18.4417 31.9985 17.7168L35.8536 14.7184C35.8536 14.7184 36.1831 14.3889 35.8536 13.8288L32.3609 7.83201C32.3609 7.83201 31.9326 7.17304 30.8782 7.63433L27.2208 9.28179C27.2208 9.28179 25.6393 7.93087 23.893 7.46958L23.2669 2.82373C23.2669 2.82373 23.2669 2 22.0478 2H19.0165" stroke="#27E4B7" stroke-width="3" stroke-miterlimit="10"/>
<path d="M25.4086 19.5949C25.4086 19.5949 25.4416 13.1698 19.0165 13.1039" stroke="#27E4B7" stroke-width="3" stroke-miterlimit="10"/>
<path d="M32.1962 19.5949C32.1962 19.5949 32.2291 20.7481 31.9985 21.473L35.8536 24.4714C35.8536 24.4714 36.1831 24.8009 35.8536 25.361L32.3609 31.3578C32.3609 31.3578 31.9326 32.0168 30.8782 31.5555L27.2208 29.908C27.2208 29.908 25.6393 31.2589 23.893 31.7202L23.2669 36.3661C23.2669 36.3661 23.2669 37.1898 22.0478 37.1898H19.0165" stroke="#27E4B7" stroke-width="3" stroke-miterlimit="10"/>
<path d="M25.4086 19.5949C25.4086 19.5949 25.4416 26.02 19.0165 26.0859" stroke="#27E4B7" stroke-width="3" stroke-miterlimit="10"/>
<path d="M5.80381 19.5949C5.80381 19.5949 5.77087 20.7481 6.00151 21.473L2.14644 24.4714C2.14644 24.4714 1.81695 24.8009 2.14644 25.361L5.63907 31.3578C5.63907 31.3578 6.06741 32.0168 7.12178 31.5555L10.7792 29.908C10.7792 29.908 12.3607 31.2589 14.107 31.7202L14.7331 36.3661C14.7331 36.3661 14.7331 37.1898 15.9522 37.1898H18.9835" stroke="#27E4B7" stroke-width="3" stroke-miterlimit="10"/>
<path d="M12.5914 19.5949C12.5914 19.5949 12.5584 26.02 18.9835 26.0859" stroke="#27E4B7" stroke-width="3" stroke-miterlimit="10"/>
</svg>
